<svg viewBox="0 0 177 43" fill="none" xmlns="http://www.w3.org/2000/svg">
  <path d="M151.014 41.8107H157.847V27.2467C157.847 23.7751 159.416 19.4042 164.57 19.4042C168.042 19.4042 169.611 21.085 169.611 25.0062V41.8107H176.444V23.0461C176.444 14.8107 170.899 12.7937 166.081 12.7937C162.215 12.7937 159.47 14.306 157.958 16.2653H157.846V0.80383H151.013L151.014 41.8107ZM148.885 20.8606C147.149 16.6032 143.788 12.7937 136.897 12.7937C127.711 12.7937 122.39 19.1799 122.39 27.6371C122.39 36.0943 127.711 42.4821 136.392 42.4821C144.068 42.4821 147.315 37.9462 149.22 33.7988L143.395 30.7201C142.33 33.2967 140.594 36.2086 136.506 36.2086C131.744 36.2086 129.563 32.0655 129.563 27.6379C129.563 23.2103 132.028 19.0689 136.901 19.0689C138.255 19.0808 139.57 19.5285 140.649 20.3458C141.729 21.1631 142.517 22.3065 142.896 23.6066L148.885 20.8606ZM99.1618 23.9936C99.5516 22.3572 100.495 20.9058 101.832 19.8852C103.169 18.8646 104.818 18.3375 106.5 18.3932C108.073 18.3741 109.599 18.9341 110.787 19.9667C111.974 20.9993 112.741 22.4325 112.941 23.9936H99.1618ZM120.112 29.2595C120.112 19.1197 115.963 12.7903 106.5 12.7903C97.3117 12.7903 91.9907 19.1764 91.9907 27.6337C91.9907 36.0909 97.3125 42.4787 106.5 42.4787C114.229 42.4787 118.318 38.7828 120.447 35.5355L114.678 32.1756C114.001 33.1265 111.876 36.2069 106.5 36.2069C104.61 36.245 102.781 35.5381 101.408 34.2389C100.035 32.9398 99.2281 31.1527 99.1618 29.2637L120.112 29.2595ZM78.6978 7.28989V35.3093C78.6978 39.6235 80.6021 42.1426 86.2025 42.1426C88.0332 42.1163 89.8556 41.8912 91.6376 41.4712V35.8691C90.6357 36.0341 89.6259 36.1471 88.6122 36.2078C85.9789 36.2078 85.531 34.9766 85.531 32.7362V18.4008H91.6376V13.4702H85.531V0.455811L78.6978 7.28989ZM67.2473 41.8065H74.0805V0.802176H67.2473V41.8065ZM55.5208 31.6684C55.5208 35.3094 51.4328 36.8776 48.2389 36.8776C45.774 36.8776 43.8146 35.4754 43.8146 33.3475C43.8146 30.6591 45.9433 29.9309 48.5191 29.4279L52.2718 28.643C53.3968 28.4594 54.4906 28.1197 55.5216 27.6337L55.5208 31.6684ZM62.354 22.0901C62.354 14.0232 56.249 12.7903 50.1423 12.7903C43.9255 12.7903 38.0423 15.3669 38.0423 22.0333L44.8772 22.3145C44.8772 19.2332 46.1651 18.057 50.1423 18.057C53.111 18.057 55.5208 18.8403 55.5208 21.6405V22.4813C53.0879 23.1737 50.6194 23.7347 48.1262 24.1621L45.2693 24.7218C41.0686 25.5626 36.6435 28.0283 36.6435 33.5736C36.6435 39.0622 40.901 42.4787 46.2786 42.4787C49.6458 42.5173 52.9188 41.3672 55.5216 39.2307C55.5253 40.1321 55.7563 41.018 56.1931 41.8065H63.4192C63.028 41.19 62.3548 39.9589 62.3548 37.0444L62.354 22.0901ZM35.6122 13.4617C33.7079 5.11626 27.6012 0.913911 19.5911 0.913911C7.65966 0.913911 0.681641 10.6041 0.681641 21.864C0.681641 33.124 6.81969 42.814 19.5911 42.814C27.5454 42.814 32.8671 38.9496 36.0602 30.9402L29.227 27.8022C27.7698 32.4516 24.8011 35.8691 19.5919 35.8691C11.6376 35.8691 8.33022 28.8115 8.33022 21.8649C8.33022 14.9182 11.6325 7.86231 19.5919 7.86231C21.7203 7.79495 23.798 8.51965 25.4228 9.89616C27.0475 11.2727 28.1037 13.203 28.387 15.3136L35.6122 13.4617Z" fill="#F58427" />
</svg>
  