<svg xmlns="http://www.w3.org/2000/svg" viewBox="0 0 298.079 101.574">
  <g id="nyu_logo_new_york_university1_adobe_express" transform="translate(-8.591 -8.266)">
    <path id="Path_3" data-name="Path 3" d="M176.042,170.265a3.836,3.836,0,0,1-.057.6,8.962,8.962,0,0,1-.906.444.888.888,0,0,1-.118.017.243.243,0,0,1-.137-.031,3.135,3.135,0,0,0-.566-.071q-48.835,0-97.669,0a4.208,4.208,0,0,0-.645.1l-.067.017a1.065,1.065,0,0,1-.112-.038.683.683,0,0,0-.223.006.719.719,0,0,1-.209-.02c-.492-.235-.435-.629-.435-1q0-49.626-.011-99.254c0-.592.129-.964.758-1.033a.632.632,0,0,1,.112-.011.336.336,0,0,1,.15.032,3.463,3.463,0,0,0,.567.064q48.878,0,97.756,0a4.83,4.83,0,0,0,.653-.088l.081-.018a.852.852,0,0,1,.118.039c.352.185.641.345.932.5.007.146.014.292.017.512a.46.46,0,0,1-.036.171,3.5,3.5,0,0,0-.062.567q0,48.874,0,97.748a4.837,4.837,0,0,0,.086.656c.011.05.016.069.02.089m-51.056-18.558a3.284,3.284,0,0,1,.084-.443c.132-.822.285-1.642.393-2.467.22-1.687.406-3.379.627-5.066.156-1.194.369-2.381.517-3.576.167-1.351.267-2.711.436-4.062.181-1.452.418-2.9.611-4.348.066-.494-.209-.7-.709-.607a5.689,5.689,0,0,1-.95.1c-1.246.011-2.491.008-3.737,0-.747,0-1.494-.032-2.241-.019-.4.007-.79.08-1.256.13-.087.068-.258.154-.248.2.132.577.29,1.149.492,1.753a.261.261,0,0,1-.041.209,2.2,2.2,0,0,0,.224,1.687s.03,0,.054.068a.362.362,0,0,1-.034.169c-.02.023-.035.05-.046.179.071.609.142,1.217.213,1.925.076,1.285.119,2.573.244,3.852a8.447,8.447,0,0,0,.465,1.645.449.449,0,0,1-.024.2.923.923,0,0,0-.093.147c.052.542.1,1.084.155,1.626.219,2.186.431,4.372.666,6.556.05.467.186.925.289,1.452a.442.442,0,0,1-.04.2c.03.49-.109,1.012.314,1.489a.858.858,0,0,1-.01.291.9.9,0,0,0-.09.146c-.049.262-.18.548.209.694a.41.41,0,0,0-.037.105,1.134,1.134,0,0,0-.018.2c0,.424-.019.85.019,1.271.014.153.17.292.269.454a.411.411,0,0,0-.049.107.675.675,0,0,1-.068.163,12.376,12.376,0,0,0,.085,1.424,1.26,1.26,0,0,0,1.436.912,1.43,1.43,0,0,0,1.085-1.211c.027-.335.033-.673.069-1.007.116-1.07.234-2.139.369-3.207.04-.314.169-.618.2-.932.06-.6.078-1.213.116-1.907a2.489,2.489,0,0,1,.051-.5m4.286-49.482a.394.394,0,0,1-.086-.017c-.5.188-1.15.23-1.036,1.027,0,0,.007,0-.073,0a14.252,14.252,0,0,0-1.3,1.166,20.285,20.285,0,0,0-1.659,2.114,10.661,10.661,0,0,0-.708,1.532.448.448,0,0,1-.069.011c-.463.178-.389.609-.455,1.014a.133.133,0,0,1-.092.053,2.025,2.025,0,0,0-.291.415,12.479,12.479,0,0,0-.641,1.846,21.444,21.444,0,0,0-.563,3.56,16.489,16.489,0,0,0,.719,5.137,13.094,13.094,0,0,0,.7,1.82c.044.1.39.135.549.074.124-.047.2-.282.251-.447.343-1.076.707-2.147,1-3.237a14.135,14.135,0,0,1,2-3.944,1.991,1.991,0,0,0,.139-.705.248.248,0,0,1,.085.009,4.58,4.58,0,0,0,.508-.434c.313-.354.569-.765.91-1.088.711-.673,1.455-1.311,2.2-1.95a7.327,7.327,0,0,1,.8-.564c.6-.388,1.182-.8,1.806-1.139.657-.357,1.362-.626,2.03-.965.448-.227.865-.514,1.3-.76.65-.365,1.343-.666,1.952-1.089a3.044,3.044,0,0,0,.957-2.32,10.159,10.159,0,0,0,.014-2.379c-.1-1.127-.272-2.25-.465-3.366a16.915,16.915,0,0,1-.454-1.78,1.832,1.832,0,0,0-.7-1.37.782.782,0,0,0,.02-.1c-.126-.422-.234-.85-.382-1.265-.155-.436-.2-1.011-.812-1.052-.367-.024-.587.489-.586,1.241a.412.412,0,0,1-.094.035,1.776,1.776,0,0,0-.332.333,27.514,27.514,0,0,1-3.147,4.476,24.914,24.914,0,0,1-3.372,3.292,2.836,2.836,0,0,0-.492.72.579.579,0,0,0-.068.007.094.094,0,0,0-.05.088m-3.509-13.189c-.041.114-.082.227-.122.352,0,0-.011,0-.078-.025-.1.03-.251.027-.295.094-.627.963-1.191,1.971-1.868,2.9-.772,1.057-1.646,2.04-2.463,3.066a3.1,3.1,0,0,0-.273.545s.008,0-.067.011c-.329.211-.72.378-.641.885,0,0,0,.008-.078-.013a2.073,2.073,0,0,0-.521.3c-.279.292-.506.632-.771.938a11.445,11.445,0,0,0-.823.9c-.662.954-1.3,1.928-1.924,2.906-.206.322-.342.687-.53,1.022a12.088,12.088,0,0,0-.839,1.465,22.5,22.5,0,0,0-1.118,3.361,13.414,13.414,0,0,0-.329,3.514,9.276,9.276,0,0,0,1.943,5.334,8.422,8.422,0,0,0,.78.754s0-.007.011.07a8.024,8.024,0,0,0,2.734,2.876c.089.061.241.032.356.048,0,0,0-.008.01.066a1.517,1.517,0,0,0,.235.343c.453.377.91.751,1.385,1.1.367.268.763.495,1.173.8.215.315.365.226.5-.055,0,0-.021-.023.045-.032a1.4,1.4,0,0,0,.014-.466c-.28-.854-.606-1.693-.869-2.551a11.633,11.633,0,0,1-.465-1.956c-.1-.8-.051-1.62-.132-2.424a5.417,5.417,0,0,1,.095-2.2c.357-1.172.6-2.38.9-3.568.045-.172.236-.3.3-.475.238-.621.452-1.252.673-1.9a.227.227,0,0,1,.1.015c.145-.1.347-.175.425-.315a13.31,13.31,0,0,1,3.6-4.257c.082-.062.22-.123.227-.2.073-.7.64-.981,1.111-1.339.2-.153.441-.27.3-.635.023-.03.053-.044.173-.044.362-.214.723-.428,1.146-.68.173-.177.316-.416.526-.52.53-.261.515-.708.485-1.174-.028-.424-.045-.85-.106-1.27-.207-1.413-.355-2.84-.671-4.228a29.264,29.264,0,0,0-1.168-3.7c-.393-1.054-.552-2.232-1.47-3.11a3.31,3.31,0,0,0-.207.414.158.158,0,0,1-.09.066c-.05.048-.12.087-.148.146-.364.779-.731,1.557-1.075,2.346a3.17,3.17,0,0,0-.07.476s.027.04-.042.028M115.9,120.206a3.349,3.349,0,0,0-.253-.439c-.6-.756-1.2-1.513-1.822-2.247-.094-.111-.325-.106-.531-.184-.018-.028-.027-.058.018-.142a.919.919,0,0,0-.026-.252c-.5-1.265-1.092-2.5-1.505-3.8a9.807,9.807,0,0,1,.02-5.453q.261-1.039.545-2.072c.047-.17.139-.326.2-.492.214-.559.424-1.12.7-1.7a6.78,6.78,0,0,1,.754-1.189,2.251,2.251,0,0,0,.468-2.555c-.523-1.41-1.006-2.839-1.621-4.208a3.613,3.613,0,0,0-1.39-2,1.051,1.051,0,0,0-.174.29,15.762,15.762,0,0,1-.354,1.707c-.332.983-.732,1.944-1.126,2.9-.131.32-.351.6-.5.915-.349.727-.664,1.472-1.027,2.192-.181.359-.454.67-.652,1.022-.56.995-1.143,1.98-1.642,3.006a17.977,17.977,0,0,0-1.113,2.749,12.136,12.136,0,0,0-.414,2.564,12.632,12.632,0,0,0,.052,2.551,10.6,10.6,0,0,0,1.08,3.595,2.558,2.558,0,0,0,1.348,1.454c.029.022.043.051.018.152.026.11.014.261.083.323.491.445.983.892,1.507,1.3a2.77,2.77,0,0,0,.736.29.355.355,0,0,1,.006.085,11.444,11.444,0,0,0,1.985,1.287,17.594,17.594,0,0,0,3.505,1.006c1.443.242,2.92.286,4.384.394.1.007.212-.162.311-.3a.143.143,0,0,1,.044-.1,1.256,1.256,0,0,0-.226-.377c-.133-.106-.337-.119-.475-.221-.575-.423-1.122-.885-1.709-1.29a11.044,11.044,0,0,0-1.224-.662.237.237,0,0,1,.018-.1m.092,9.3a2.37,2.37,0,0,0,.542.131q6.385.011,12.77,0a4.256,4.256,0,0,0,1.047-.243,8.221,8.221,0,0,0,.088-.827c.01-1.131,0-2.262,0-3.4H115.8c0,1.37,0,2.718.007,4.067,0,.067.1.134.18.278m23.268-10.295a17.216,17.216,0,0,0,4.823-6.88,33.136,33.136,0,0,0,2.093-11.748,3.057,3.057,0,0,0-.1-.519c-.289.552-.5,1-.746,1.42a18.241,18.241,0,0,1-8.763,7.6,17.482,17.482,0,0,0-9.651,10.215,12.965,12.965,0,0,0-.851,3.657C129.715,123.331,135.321,122.549,139.256,119.206Z" transform="translate(-65.989 -61.604)" fill="#5b0f8d" />
    <path id="Path_4" data-name="Path 4" d="M1320.019,328.812a.41.41,0,0,1-.062.181,2.771,2.771,0,0,1-.729.133c-3.06.006-6.12,0-9.179.008-.4,0-.715-.044-.9-.48-.075-.173-.362-.255-.558-.415a3.451,3.451,0,0,0-.349-.34.4.4,0,0,1-.092-.144c-.543-.843-1.059-1.625-1.6-2.392-.385-.548-.775-1.094-1.2-1.606-.57-.683-1.18-1.332-1.773-2a.118.118,0,0,1-.027-.067,1.27,1.27,0,0,0-.127-.394c-.7-.949-1.409-1.889-2.114-2.834q-.646-.866-1.278-1.741c.007,0,.01-.021.01-.021a.031.031,0,0,1-.046.008c-.789-.977-1.553-1.929-2.3-2.894-.65-.837-1.282-1.688-1.92-2.534-.68-.9-1.365-1.8-2.035-2.709-.3-.408-.552-.854-.854-1.26-.524-.7-1.05-1.409-1.617-2.08-.426-.505-.914-.957-1.376-1.433a.121.121,0,0,1-.029-.07,2.832,2.832,0,0,0-.776-1.328q-1.485-1.885-2.944-3.79c-.956-1.251-1.891-2.517-2.841-3.773-.488-.645-.976-1.288-1.483-1.917a1.487,1.487,0,0,0-.428-.259,1.782,1.782,0,0,0-.176.516c-.016,1.116-.009,2.233-.009,3.35q0,15.769,0,31.537a1.624,1.624,0,0,1-.082.68.681.681,0,0,1-.463.368c-3.706.02-7.411.012-11.118.019-.447,0-.545-.23-.514-.612.04-.478.092-.956.092-1.435q.006-26.94,0-53.881a5.54,5.54,0,0,0-.031-.853c-.05-.327.1-.421.379-.422l1.6,0c2.975,0,5.952,0,8.927.013a1.006,1.006,0,0,1,.708.238c.665.838,1.271,1.721,1.907,2.582.873,1.18,1.747,2.359,2.636,3.527.356.468.775.888,1.126,1.359.494.662.937,1.362,1.433,2.022.11.146.35.195.529.288a.2.2,0,0,1,.047.1,2.139,2.139,0,0,0,.225.529q1.365,1.843,2.749,3.673.808,1.07,1.641,2.123a1.275,1.275,0,0,0,.38.225.122.122,0,0,1,.031.063,8.623,8.623,0,0,0,.493.915c.361.538.722,1.08,1.133,1.578a11.44,11.44,0,0,0,1.02.975.079.079,0,0,1,.021.055,1.759,1.759,0,0,0,.209.269.188.188,0,0,1,0,.04,9.486,9.486,0,0,0,.593.946q1.345,1.809,2.708,3.606c.472.621.982,1.215,1.441,1.845.906,1.241,1.772,2.51,2.686,3.743.581.783,1.207,1.534,1.837,2.28.386.458.815.88,1.225,1.318,0,0,0,0,.005.04.217.3.432.557.642.816-.005,0,0-.01,0,.011a.167.167,0,0,0,.128.066,2.222,2.222,0,0,1,.126-.187,11.326,11.326,0,0,0,.051-1.146q0-15.607.007-31.215c0-.674.1-1.349.082-2.022-.014-.57.245-.678.746-.676,3.455.015,6.912.008,10.368.011a1.794,1.794,0,0,1,.581.056.474.474,0,0,1,.279.308,13.263,13.263,0,0,1,.119,1.593q.008,27.072.01,54.145A5.525,5.525,0,0,0,1320.019,328.812Z" transform="translate(-1132.454 -241.959)" fill="#5b0f8d" />
    <path id="Path_5" data-name="Path 5" d="M2413.505,318.552a.609.609,0,0,1,.192.046,7,7,0,0,0,.778.06c.4,0,.792.008,1.274.035.824-.011,1.566-.017,2.3-.093a2.986,2.986,0,0,0,.8-.333,1.107,1.107,0,0,1,.2-.011c.085.017.113.005.133-.027a.164.164,0,0,0,.045,0,4.656,4.656,0,0,0,.923-.166,12.6,12.6,0,0,0,2.283-.972,20.691,20.691,0,0,0,2.125-1.769,13.9,13.9,0,0,0,1.627-2.106,12.03,12.03,0,0,0,1.488-4.457c.144-1.589.459-3.174.465-4.762.043-10.437.022-20.874.022-31.311,0-.728.022-.75.753-.75q5.076,0,10.151,0c.247,0,.493.055.741.073.3.021.455.149.452.466-.01.8-.012,1.591-.013,2.386,0,2.351.025,4.7,0,7.053-.1,8.566.245,17.135-.188,25.7-.045.879-.117,1.76-.245,2.629a27.34,27.34,0,0,1-.577,2.969c-.3,1.133-.672,2.249-1.068,3.353a13.584,13.584,0,0,1-.873,1.907c-.292.539-.685,1.024-.992,1.557-.076.133.012.36.022.553a.124.124,0,0,0,0,.028.221.221,0,0,1-.081.059c-.127.089-.2.158-.313.238a2.346,2.346,0,0,0-.2.234c-.668.757-1.261,1.543-1.967,2.208a32.9,32.9,0,0,1-3.042,2.561c-.719.529-1.582.86-2.356,1.319a19.615,19.615,0,0,1-4.787,1.859,22.9,22.9,0,0,1-3.211.659c-1.335.176-2.685.284-4.031.331a24,24,0,0,1-3.3-.1c-1.744-.18-3.481-.431-5.213-.7a11.292,11.292,0,0,1-1.665-.509,24.453,24.453,0,0,1-2.764-.922c-1.028-.473-1.95-1.171-2.973-1.656a17.53,17.53,0,0,1-3.863-3.068c-.811-.71-1.1-1.806-1.951-2.473a.125.125,0,0,1-.031-.043c-.74-1.461-1.515-2.906-2.2-4.393-.275-.6-.234-1.348-.542-1.917a13.055,13.055,0,0,1-.848-3.541,33.125,33.125,0,0,1-.45-3.574c-.033-.192-.065-.343-.1-.521-.028-.076-.05-.126-.073-.175a.665.665,0,0,1,.015-.182c.021-.038.057-.041.078-.069a1.61,1.61,0,0,0,.079-.347q0-15.8,0-31.493c0-.636.015-1.275-.044-1.906-.046-.493.177-.589.631-.547,3.83,0,7.609,0,11.419.027a2.236,2.236,0,0,1,.278.769c.014,6.517,0,13.035.016,19.552.014,4.823.017,9.647.13,14.468a13.5,13.5,0,0,0,1.449,5.742c.054.109.2.171.3.255a.32.32,0,0,1,.051.136,1.981,1.981,0,0,0,.157.652c.247.382.546.729.819,1.094a11.319,11.319,0,0,0,2.555,2.341,1.07,1.07,0,0,0,.407.084s0,0,.015.033a5.849,5.849,0,0,0,3.406,1.244,1.264,1.264,0,0,1,.212.037c.185.038.3.054.422.069,0,0,.01,0,.041.029C2413.054,318.515,2413.28,318.534,2413.505,318.552Z" transform="translate(-2133.904 -241.965)" fill="#5b0f8d" />
    <path id="Path_6" data-name="Path 6" d="M1827.963,304.535q-2.837-4.455-5.674-8.911-2.535-3.985-5.065-7.974-4.829-7.618-9.651-15.24c-.456-.717-.915-1.431-1.433-2.24.3-.022.5-.049.706-.049,4.508,0,9.017,0,13.524-.01a.939.939,0,0,1,.93.533q5.111,8.665,10.255,17.311c.944,1.591,1.9,3.173,2.847,4.764a3.483,3.483,0,0,1,.2.5l.221-.2q4.051-6.7,8.1-13.408c1.83-3.025,3.669-6.046,5.492-9.076a.753.753,0,0,1,.722-.427q6.708.012,13.417.007c.137,0,.275.028.5.052-.315.518-.59.983-.879,1.44-1.376,2.178-2.747,4.36-4.137,6.53-2.023,3.155-4.071,6.294-6.09,9.452-1.845,2.886-3.659,5.793-5.5,8.682-1.707,2.68-3.44,5.343-5.133,8.031a2.364,2.364,0,0,0-.346,1.19q-.032,10.718-.02,21.435a3.2,3.2,0,0,1-.061.589c-.073-.047-.141-.153-.168-.143-.146.053-.28.19-.422.2-.831.029-1.661.046-2.492.038-2.827-.027-5.652-.068-8.478-.1-.863-.01-.864,0-.864-.856q0-10.248,0-20.5a7.386,7.386,0,0,0-.09-.81.183.183,0,0,1,.015-.11,2.922,2.922,0,0,0-.161-.485.078.078,0,0,0,0-.038A1.448,1.448,0,0,0,1827.963,304.535Z" transform="translate(-1612.149 -240.341)" fill="#5b108c" />
    <path id="Path_7" data-name="Path 7" d="M1287.281,280.277a1.1,1.1,0,0,1-.525-.255c-.5-.66-.939-1.36-1.433-2.022-.351-.471-.77-.891-1.126-1.359-.89-1.168-1.763-2.347-2.636-3.527-.636-.861-1.242-1.744-1.907-2.582a1.006,1.006,0,0,0-.708-.238c-2.975-.017-5.952-.012-8.927-.013l-1.6,0c-.28,0-.43.094-.379.422a5.541,5.541,0,0,1,.031.853q0,26.94,0,53.881c0,.478-.052.957-.092,1.435-.031.382.067.613.514.612,3.707-.007,7.412,0,11.118-.019a.681.681,0,0,0,.463-.368,1.624,1.624,0,0,0,.082-.68q0-15.769,0-31.537c0-1.117-.008-2.233.009-3.35a1.782,1.782,0,0,1,.176-.516,1.487,1.487,0,0,1,.428.259c.507.629,1,1.273,1.483,1.917.949,1.256,1.885,2.522,2.841,3.773q1.456,1.907,2.944,3.79a2.769,2.769,0,0,1,.768,1.315c-.9-1.109-1.808-2.246-2.693-3.4q-2.643-3.451-5.269-6.917c-.083-.11-.182-.208-.386-.44-.039.378-.087.625-.087.871-.006,4.645-.007,9.29-.033,14.023a5.693,5.693,0,0,0-.064.724q-.006,7.239-.007,14.477,0,3.045,0,6.089a.359.359,0,0,1-.066.2c-1.811.026-3.568,0-5.325,0-2.289,0-4.579.019-6.869.03-.049-.479-.1-.958-.147-1.538,0-3.914-.006-7.727,0-11.591.006-7.842.009-15.634.007-23.426,0-2.686-.01-5.372-.007-8.108,0-3.863,0-7.677-.006-11.491.005-.231.015-.462.016-.693,0-.8,0-.8.775-.8q5.124,0,10.249,0a1.119,1.119,0,0,1,1.018.434c2.389,3.163,4.8,6.311,7.2,9.465A1.692,1.692,0,0,1,1287.281,280.277Z" transform="translate(-1131.409 -240.308)" fill="#501e70" />
    <path id="Path_8" data-name="Path 8" d="M2721.079,319.883c-.012-.184-.1-.411-.023-.543.307-.533.7-1.017.992-1.557a13.582,13.582,0,0,0,.873-1.907c.4-1.1.77-2.22,1.068-3.353a27.338,27.338,0,0,0,.577-2.969c.128-.87.2-1.751.245-2.629.433-8.563.083-17.133.188-25.7.029-2.351,0-4.7,0-7.053,0-.8,0-1.591.013-2.386,0-.317-.157-.445-.452-.466-.248-.017-.494-.072-.741-.073q-5.076-.007-10.151,0c-.73,0-.753.022-.753.75,0,10.437.02,20.874-.022,31.311-.006,1.588-.321,3.173-.465,4.762a12.03,12.03,0,0,1-1.488,4.457,12.383,12.383,0,0,1-1.631,2.081.451.451,0,0,1-.112-.127c2.716-3.133,3.478-6.874,3.373-10.98-.006-2.195,0-4.29.017-6.435.008-2.235.01-4.42.008-6.605,0-3.517-.009-7.035-.007-10.6,0-2.143-.013-4.237-.022-6.331,0-.772.005-1.545.052-2.35,4.223-.028,8.4-.024,12.578-.019.008.048.014.1.028.228.006,11.335.006,22.586.006,33.837a29.267,29.267,0,0,1-1.124,7.969,37.158,37.158,0,0,1-1.7,4.409,20.956,20.956,0,0,1-1.294,2.249C2721.092,319.881,2721.079,319.883,2721.079,319.883Z" transform="translate(-2418.661 -241.272)" fill="#511a76" />
    <path id="Path_9" data-name="Path 9" d="M73.787,70.072c-.582.077-.71.448-.71,1.04q.02,49.627.011,99.254c0,.373-.058.767.4,1-.463.134-.642-.049-.62-.561.035-.8.005-1.6,0-2.5,0-2.719.007-5.338.007-7.957q0-32.764,0-65.527,0-10.876-.013-21.753c.006-.721.014-1.441.017-2.162C72.88,70.046,72.878,70.046,73.787,70.072Z" transform="translate(-64.177 -61.681)" fill="#541f79" />
    <path id="Path_10" data-name="Path 10" d="M2391.394,602.007a33.691,33.691,0,0,0,.45,3.534,13.045,13.045,0,0,0,.848,3.541c.308.569.267,1.321.542,1.917.685,1.487,1.46,2.932,2.2,4.393a.124.124,0,0,0,.031.043c.849.666,1.141,1.762,1.951,2.473a17.539,17.539,0,0,0,3.863,3.068c1.023.485,1.946,1.183,2.973,1.656a24.486,24.486,0,0,0,2.764.922,11.3,11.3,0,0,0,1.665.509c1.732.271,3.469.522,5.213.7a24.007,24.007,0,0,0,3.3.1c1.346-.047,2.7-.155,4.031-.331a22.9,22.9,0,0,0,3.211-.659,19.612,19.612,0,0,0,4.787-1.859c.774-.46,1.637-.79,2.356-1.319a32.9,32.9,0,0,0,3.042-2.561c.706-.665,1.3-1.451,1.994-2.221a2.354,2.354,0,0,1,.27-.122,13.8,13.8,0,0,1-3.034,3.486,25.109,25.109,0,0,1-3.5,2.5,19.675,19.675,0,0,1-5.963,2.354,38.27,38.27,0,0,1-4.751.815c-2.03.143-4.079.075-6.117.036a25.192,25.192,0,0,1-6.06-.934,21.554,21.554,0,0,1-8.823-4.615,20.338,20.338,0,0,1-5.864-9.082,27.775,27.775,0,0,1-1.379-6.764c-.034-.5-.065-.991-.071-1.535A.089.089,0,0,1,2391.394,602.007Z" transform="translate(-2134.767 -536.752)" fill="#541f79" />
    <path id="Path_11" data-name="Path 11" d="M1642.167,328.062a2.644,2.644,0,0,1-.136-.743q-.008-27.072-.01-54.145a13.263,13.263,0,0,0-.119-1.593.474.474,0,0,0-.279-.308,1.8,1.8,0,0,0-.581-.056c-3.456,0-6.913,0-10.368-.011-.5,0-.76.106-.746.676.016.673-.082,1.348-.082,2.022q-.011,15.607-.007,31.215a8.057,8.057,0,0,1-.06,1.1c-.044-8.277-.043-16.521-.049-24.765,0-3.364-.019-6.728-.03-10.092a.454.454,0,0,1,.091-.2c4.146-.04,8.235-.04,12.326-.04.04.71.079,1.42.09,2.216a4.851,4.851,0,0,0-.075.721q0,4.086,0,8.173,0,21.634,0,43.268a6.232,6.232,0,0,0,.1.779C1642.218,326.861,1642.208,327.445,1642.167,328.062Z" transform="translate(-1454.573 -241.242)" fill="#511a76" />
    <path id="Path_12" data-name="Path 12" d="M1020.84,179.416c-.037.011-.043-.009-.049-.108.007-4.212.026-8.345.026-12.478q0-36.988,0-73.975c0-4.169-.023-8.338-.036-12.506,0-.02.009-.04.02-.09a3.89,3.89,0,0,1,.113.738q0,40.94-.011,81.88,0,7.91.013,15.82A3.923,3.923,0,0,1,1020.84,179.416Z" transform="translate(-910.753 -70.784)" fill="#845c9c" />
    <path id="Path_13" data-name="Path 13" d="M72.057,98.364q.058,10.835.047,21.725,0,32.764,0,65.527c0,2.619-.006,5.238-.012,7.906a3.263,3.263,0,0,1-.087-.611Q72,158.662,72,124.411q0-12.717.006-25.434A3.334,3.334,0,0,1,72.057,98.364Z" transform="translate(-63.408 -86.955)" fill="#dcbdee" />
    <path id="Path_14" data-name="Path 14" d="M268.069,1018.139c-2.3.005-4.595.017-6.892.017H192.46a2.287,2.287,0,0,1-.37-.027c-.049-.022-.049-.056,0-.06.139-.006.228-.01.317-.01q34.383,0,68.767,0,3.446,0,6.893.031C268.069,1018.106,268.069,1018.139,268.069,1018.139Z" transform="translate(-170.628 -908.322)" fill="#af8bc7" />
    <path id="Path_15" data-name="Path 15" d="M2390.479,271.268c-.4-.042-.626.054-.581.547.059.631.044,1.27.044,1.906,0,10.481,0,20.962-.04,31.5-.066.056-.093.059-.119.061-.022-.133-.045-.266-.081-.486,0-.514.021-.941.021-1.368q.007-10.9.005-21.809c0-3.4-.019-6.8-.03-10.206a.5.5,0,0,1,.087-.2,2.555,2.555,0,0,1,.7-.013C2390.48,271.22,2390.479,271.268,2390.479,271.268Z" transform="translate(-2133.32 -241.294)" fill="#541f79" />
    <path id="Path_16" data-name="Path 16" d="M1464.29,570.4a19.313,19.313,0,0,1,1.37,1.4c.567.671,1.093,1.376,1.617,2.08.3.407.554.852.854,1.26.669.909,1.355,1.807,2.035,2.709.638.846,1.27,1.7,1.92,2.534.747.965,1.512,1.917,2.3,2.893l.03.017c.429.579.854,1.16,1.285,1.738.7.945,1.414,1.886,2.114,2.834a1.116,1.116,0,0,1,.12.383c-1.02-1.267-2.047-2.561-3.05-3.873q-5.141-6.719-10.266-13.45A4.5,4.5,0,0,1,1464.29,570.4Z" transform="translate(-1306.847 -508.525)" fill="#501e70" />
    <path id="Path_17" data-name="Path 17" d="M1746.08,345.154a4.115,4.115,0,0,1-.1-.729q0-21.634,0-43.268,0-4.087,0-8.173a4.034,4.034,0,0,1,.072-.671c.029,1.78.036,3.6.036,5.412q0,23.289,0,46.578C1746.09,344.569,1746.085,344.836,1746.08,345.154Z" transform="translate(-1558.42 -260.168)" fill="#72478b" />
    <path id="Path_18" data-name="Path 18" d="M309.966,69.017c.16-.005.32-.016.48-.016h49.837a1.592,1.592,0,0,1,.316.029c.049.024.05.06,0,.065-.157.007-.264.01-.371.01H310.445a3.329,3.329,0,0,1-.48-.033C309.965,69.054,309.966,69.017,309.966,69.017Z" transform="translate(-275.933 -60.731)" fill="#9872b0" />
    <path id="Path_19" data-name="Path 19" d="M2506.272,312.013a.634.634,0,0,1-.3-.221,13.5,13.5,0,0,1-1.449-5.742c-.113-4.821-.116-9.645-.13-14.468-.018-6.517,0-13.035-.016-19.552a2.5,2.5,0,0,0-.278-.79c-.03-.046-.029-.089.013-.091l.372-.008c.008.049.015.1.03.233,0,2.08,0,4.075-.005,6.069q-.006,13.283-.006,26.566c0,.317.052.633.08.95A18.952,18.952,0,0,0,2506.272,312.013Z" transform="translate(-2235.468 -241.261)" fill="#501e70" />
    <path id="Path_20" data-name="Path 20" d="M1534.477,478.084c-.406-.4-.835-.823-1.221-1.281-.63-.746-1.256-1.5-1.837-2.28-.914-1.234-1.78-2.5-2.686-3.743-.46-.63-.97-1.223-1.441-1.845q-1.365-1.8-2.708-3.606a9.712,9.712,0,0,1-.594-.946c.688.816,1.393,1.658,2.06,2.53q4.107,5.38,8.194,10.776A2.491,2.491,0,0,1,1534.477,478.084Z" transform="translate(-1360.164 -413.843)" fill="#501e70" />
    <path id="Path_21" data-name="Path 21" d="M2013.989,599.977a6.73,6.73,0,0,1,.088.784q.006,10.249,0,20.5c0,.852,0,.846.864.856,2.826.031,5.651.073,8.478.1.831.008,1.661-.008,2.492-.038.142-.005.276-.143.422-.2.027-.01.1.1.144.177a.214.214,0,0,1-.066.16,3.61,3.61,0,0,1-.586.013q-4.744-.007-9.487-.008c-.78,0-1.561.027-2.342.041a1.187,1.187,0,0,1-.015-.159c-.005-4.052-.015-8.018-.014-11.984Q2013.971,605.1,2013.989,599.977Z" transform="translate(-1797.759 -534.939)" fill="#511a76" />
    <path id="Path_22" data-name="Path 22" d="M1626.483,273.714c.021,3.325.038,6.689.041,10.053.006,8.244.005,16.488.016,24.782a.26.26,0,0,1-.1.2.476.476,0,0,0-.118-.064s0,.01-.028-.064c-.08-.168-.135-.261-.189-.355.1-.014.276-.006.288-.045a1.546,1.546,0,0,0,.019-.423q0-15.017,0-30.035C1626.419,276.424,1626.453,275.088,1626.483,273.714Z" transform="translate(-1451.367 -243.558)" fill="#dcbdee" />
    <path id="Path_23" data-name="Path 23" d="M2859.2,307.412q-.037-16.825-.023-33.767c.033,1.138.091,2.324.092,3.511.008,5.073,0,10.146,0,15.219q0,6.862.009,13.724C2859.273,306.525,2859.242,306.951,2859.2,307.412Z" transform="translate(-2552.604 -243.496)" fill="#b390cb" />
    <path id="Path_24" data-name="Path 24" d="M2508.116,307.162c-.026-.271-.078-.588-.078-.9q0-13.283.006-26.566c0-1.995.009-3.989.013-6.033.031.355.088.76.088,1.164q0,15.747-.007,31.494C2508.139,306.583,2508.123,306.849,2508.116,307.162Z" transform="translate(-2239.006 -243.508)" fill="#bb98d0" />
    <path id="Path_25" data-name="Path 25" d="M2389.037,273.7c.022,3.363.04,6.765.042,10.167q0,10.9-.005,21.809c0,.427-.023.853-.031,1.328-.02-2.5-.065-5.039-.068-7.582q-.011-12.015.005-24.03C2388.98,274.846,2389.009,274.3,2389.037,273.7Z" transform="translate(-2132.668 -243.55)" fill="#d9baec" />
    <path id="Path_26" data-name="Path 26" d="M1267.09,392.027q.008,4.029.015,8.058c0,7.792,0,15.584-.027,23.427a.076.076,0,0,1-.062.05c-.005-.106-.016-.213-.016-.319q0-15.559.028-31.167C1267.053,392.026,1267.09,392.027,1267.09,392.027Z" transform="translate(-1130.65 -349.222)" fill="#f7daff" />
    <path id="Path_27" data-name="Path 27" d="M1639.064,799.021c.19.123.478.2.553.378.187.437.5.481.9.48,3.06-.008,6.12,0,9.179-.008a4.939,4.939,0,0,0,.724-.1.347.347,0,0,1,0,.31c-3.566.041-7.077.038-10.588.034-.257-.326-.513-.651-.776-1.023A.1.1,0,0,1,1639.064,799.021Z" transform="translate(-1462.925 -712.703)" fill="#511a76" />
    <path id="Path_28" data-name="Path 28" d="M2012.793,595.8c0,3.441-.016,6.856-.017,10.27,0,3.966.009,7.932.008,11.948a2.111,2.111,0,0,1-.113-.556q0-10.674,0-21.347c0-.261-.05-.523-.032-.786a1.415,1.415,0,0,1,.15.391Z" transform="translate(-1796.566 -530.788)" fill="#72478b" />
    <path id="Path_29" data-name="Path 29" d="M1384.037,629.668c-.031-2-.031-4.026-.03-6.056q0-7.239.007-14.477a4.779,4.779,0,0,1,.061-.673c.026,3.829.032,7.694.036,11.56q.006,4.489.006,8.978A3.369,3.369,0,0,1,1384.037,629.668Z" transform="translate(-1235.147 -542.517)" fill="#72478b" />
    <path id="Path_30" data-name="Path 30" d="M1455.22,373.4a.762.762,0,0,1-.374-.19q-.836-1.049-1.641-2.123-1.382-1.831-2.749-3.673a1.7,1.7,0,0,1-.206-.506c.823,1.014,1.645,2.052,2.448,3.1C1453.546,371.129,1454.376,372.252,1455.22,373.4Z" transform="translate(-1294.308 -326.793)" fill="#501e70" />
    <path id="Path_31" data-name="Path 31" d="M1592.28,738.394c.586.629,1.2,1.279,1.766,1.962.428.513.818,1.059,1.2,1.606.538.767,1.054,1.549,1.562,2.352-1-1.245-1.993-2.513-2.971-3.791C1593.311,739.833,1592.8,739.127,1592.28,738.394Z" transform="translate(-1421.153 -658.558)" fill="#501e70" />
    <path id="Path_32" data-name="Path 32" d="M2740.095,353.027q.008,5.276.014,10.552c0,2.185,0,4.371-.027,6.606a.076.076,0,0,1-.063.05q-.008-5.01-.014-10.021c0-2.363,0-4.726.027-7.14C2740.057,353.025,2740.095,353.027,2740.095,353.027Z" transform="translate(-2446.172 -314.391)" fill="#f7daff" />
    <path id="Path_33" data-name="Path 33" d="M2665.607,676.578a.207.207,0,0,1,.11.126,16.737,16.737,0,0,1-2.091,1.776,12.6,12.6,0,0,1-2.283.972,4.613,4.613,0,0,1-.923.165c.5-.2,1.041-.4,1.58-.609A10.723,10.723,0,0,0,2665.607,676.578Z" transform="translate(-2375.096 -603.351)" fill="#501e70" />
    <path id="Path_34" data-name="Path 34" d="M2529.217,659.473a.649.649,0,0,1-.4-.05,11.319,11.319,0,0,1-2.555-2.341c-.272-.366-.572-.713-.819-1.094a1.548,1.548,0,0,1-.137-.614,25.175,25.175,0,0,0,1.535,2.015C2527.566,658.135,2528.411,658.761,2529.217,659.473Z" transform="translate(-2254.431 -584.413)" fill="#501e70" />
    <path id="Path_35" data-name="Path 35" d="M2403.094,270.047a.972.972,0,0,1-.4.039c-3.87,0-7.65,0-11.429,0l-.688,0a1.081,1.081,0,0,1,.389-.116q5.895-.01,11.789,0A.861.861,0,0,1,2403.094,270.047Z" transform="translate(-2134.106 -240.203)" fill="#754a8e" />
    <path id="Path_36" data-name="Path 36" d="M2753.683,270.048c-4.155.034-8.332.03-12.563.021a1.084,1.084,0,0,1,.4-.11q5.914-.009,11.83,0A.832.832,0,0,1,2753.683,270.048Z" transform="translate(-2447.169 -240.201)" fill="#754a8e" />
    <path id="Path_37" data-name="Path 37" d="M2014.62,809.036c.741-.025,1.521-.051,2.3-.052q4.744,0,9.487.008c.177,0,.354.02.579.031-.43.025-.908.069-1.385.069q-5.26.005-10.519-.006A3.634,3.634,0,0,1,2014.62,809.036Z" transform="translate(-1798.34 -721.6)" fill="#d9baec" />
    <path id="Path_38" data-name="Path 38" d="M1642.913,270.045c-4.065.037-8.154.037-12.293.037a1,1,0,0,1,.384-.119q5.786-.01,11.573,0A.87.87,0,0,1,1642.913,270.045Z" transform="translate(-1455.394 -240.203)" fill="#754a8e" />
    <path id="Path_39" data-name="Path 39" d="M83.372,69.106l-.084-.017a1.6,1.6,0,0,1,.471-.114c3.9,0,7.8.007,11.754.034.051.021.051.055,0,.058C91.432,69.083,87.4,69.094,83.372,69.106Z" transform="translate(-73.491 -60.708)" fill="#845c9c" />
    <path id="Path_40" data-name="Path 40" d="M1269.68,809.067c2.25-.024,4.541-.043,6.83-.043,1.758,0,3.514.023,5.32.037-.394.024-.836.068-1.279.068q-5.2,0-10.409-.006A3.129,3.129,0,0,1,1269.68,809.067Z" transform="translate(-1133.043 -721.637)" fill="#d9baec" />
    <path id="Path_41" data-name="Path 41" d="M908.163,69.034c.012.038-.006.042-.1.048-4.108-.01-8.139-.021-12.171-.049,0-.017,0-.051,0-.051q5.991-.012,11.982-.023A.761.761,0,0,1,908.163,69.034Z" transform="translate(-799.217 -60.693)" fill="#845c9c" />
    <path id="Path_42" data-name="Path 42" d="M198.107,69.17s0-.034,0-.051c3.953-.022,7.907-.027,11.91-.025.05.006.049.042,0,.067C206.013,69.18,202.06,69.175,198.107,69.17Z" transform="translate(-176.033 -60.814)" fill="#a984c2" />
    <path id="Path_43" data-name="Path 43" d="M795.94,69.108c.049.006.049.04,0,.063-4,.02-7.956.017-11.909.014,0,0,0-.036,0-.055C787.983,69.108,791.937,69.1,795.94,69.108Z" transform="translate(-699.314 -60.825)" fill="#a984c2" />
    <path id="Path_44" data-name="Path 44" d="M1267.04,687.03a.055.055,0,0,1,.063-.05c.021,3.813.025,7.627.022,11.49a1.325,1.325,0,0,1-.086-.4C1267.033,694.408,1267.033,690.744,1267.04,687.03Z" transform="translate(-1130.681 -612.641)" fill="#dcbdee" />
    <path id="Path_45" data-name="Path 45" d="M1267.3,295.816a.053.053,0,0,1-.063.049c-.016-3.827-.014-7.654.022-11.51C1267.3,288.139,1267.307,291.952,1267.3,295.816Z" transform="translate(-1130.856 -253.06)" fill="#dcbdee" />
    <path id="Path_46" data-name="Path 46" d="M1499.792,432.063a7.928,7.928,0,0,1-1.015-.94c-.412-.5-.772-1.04-1.133-1.578a7.973,7.973,0,0,1-.484-.9Q1498.47,430.3,1499.792,432.063Z" transform="translate(-1336.203 -381.921)" fill="#501e70" />
    <path id="Path_47" data-name="Path 47" d="M1646.69,809.332q5.209-.018,10.542,0c-.322.024-.693.067-1.065.067q-4.535,0-9.07-.005A2.3,2.3,0,0,1,1646.69,809.332Z" transform="translate(-1469.746 -721.904)" fill="#d9baec" />
    <path id="Path_48" data-name="Path 48" d="M118.924,1018.1s0,.033,0,.049c-2.885.022-5.771.028-8.706.009-.049-.026-.045-.064,0-.069C113.155,1018.09,116.04,1018.1,118.924,1018.1Z" transform="translate(-97.51 -908.351)" fill="#ceade2" />
    <path id="Path_49" data-name="Path 49" d="M903.216,1018.23c-.049-.008-.049-.041,0-.064,2.933-.021,5.817-.019,8.7,0,0,.019,0,.058,0,.058C909.036,1018.23,906.151,1018.233,903.216,1018.23Z" transform="translate(-805.725 -908.405)" fill="#ceade2" />
    <path id="Path_50" data-name="Path 50" d="M2565.459,695.575a5.657,5.657,0,0,1-3.379-1.216C2563.189,694.733,2564.31,695.141,2565.459,695.575Z" transform="translate(-2287.27 -619.231)" fill="#501e70" />
    <path id="Path_51" data-name="Path 51" d="M2739.969,514.032a.056.056,0,0,1,.064-.05c.011,2.094,0,4.19,0,6.333-.021-1.655-.049-3.358-.073-5.061C2739.954,514.863,2739.961,514.472,2739.969,514.032Z" transform="translate(-2446.131 -458.138)" fill="#d9baec" />
    <path id="Path_52" data-name="Path 52" d="M2740.37,300c-.007.05-.045.048-.064.048-.006-2.1.005-4.2.03-6.34Q2740.368,296.793,2740.37,300Z" transform="translate(-2446.44 -261.417)" fill="#d9baec" />
    <path id="Path_53" data-name="Path 53" d="M2631.37,705.277a2.159,2.159,0,0,1-.758.34c-.735.075-1.477.082-2.252.1C2629.324,705.551,2630.326,705.411,2631.37,705.277Z" transform="translate(-2346.464 -628.981)" fill="#501e70" />
    <path id="Path_54" data-name="Path 54" d="M87.1,1018s0,.039,0,.058c-.9.013-1.805.006-2.738-.031-.03-.032.015-.043.087-.044Z" transform="translate(-74.434 -908.253)" fill="#9872b0" />
    <path id="Path_55" data-name="Path 55" d="M985.108,1017.981c-.05-.005-.05-.044,0-.067.909-.03,1.77-.036,2.63-.044l.068.018c-.567.038-1.156.077-1.746.1C985.758,1018,985.458,1017.988,985.108,1017.981Z" transform="translate(-878.862 -908.155)" fill="#9872b0" />
    <path id="Path_56" data-name="Path 56" d="M1622.6,593.626a4.016,4.016,0,0,1,.2.361,6.34,6.34,0,0,1-.614-.741A3.815,3.815,0,0,1,1622.6,593.626Z" transform="translate(-1447.866 -528.928)" fill="#501e70" />
    <path id="Path_57" data-name="Path 57" d="M1013.241,70.467a7.476,7.476,0,0,1-.911-.454c.14-.026.312-.028.483-.042C1013.148,69.943,1013.3,70.083,1013.241,70.467Z" transform="translate(-903.207 -61.594)" fill="#541f79" />
    <path id="Path_58" data-name="Path 58" d="M1012.47,1014.475c.243-.135.532-.262.855-.405C1013.388,1014.813,1012.812,1014.37,1012.47,1014.475Z" transform="translate(-903.332 -904.761)" fill="#541f79" />
    <path id="Path_59" data-name="Path 59" d="M1636.19,796.044a.083.083,0,0,1-.022.072,2.68,2.68,0,0,1-.327-.387A1.691,1.691,0,0,1,1636.19,796.044Z" transform="translate(-1460.056 -709.763)" fill="#501e70" />
    <path id="Path_60" data-name="Path 60" d="M2609.75,708.433a3.163,3.163,0,0,1-.71-.028A3.163,3.163,0,0,1,2609.75,708.433Z" transform="translate(-2329.21 -631.767)" fill="#501e70" />
    <path id="Path_61" data-name="Path 61" d="M2600.974,707.311a3.47,3.47,0,0,1-.673-.054A3.47,3.47,0,0,1,2600.974,707.311Z" transform="translate(-2321.404 -630.749)" fill="#501e70" />
    <path id="Path_62" data-name="Path 62" d="M2012.849,594.757a2.931,2.931,0,0,1-.152-.4.084.084,0,0,1-.015-.075A2.118,2.118,0,0,1,2012.849,594.757Z" transform="translate(-1796.606 -529.856)" fill="#511a76" />
    <path id="Path_63" data-name="Path 63" d="M2816.92,728.224a1.885,1.885,0,0,1,.267-.208.343.343,0,0,1-.156.2A.5.5,0,0,1,2816.92,728.224Z" transform="translate(-2514.865 -649.289)" fill="#541f79" />
    <path id="Path_64" data-name="Path 64" d="M2391.117,597.5c0,.04-.046.04-.07.039a1,1,0,0,1-.037-.312c0-.125.006-.173.009-.222C2391.052,597.157,2391.084,597.309,2391.117,597.5Z" transform="translate(-2134.49 -532.286)" fill="#501778" />
    <path id="Path_65" data-name="Path 65" d="M1522.29,461.8a.728.728,0,0,1-.2-.228A.741.741,0,0,1,1522.29,461.8Z" transform="translate(-1358.468 -411.335)" fill="#501e70" />
    <path id="Path_66" data-name="Path 66" d="M2010.35,592.37a.644.644,0,0,1,.262.158A.636.636,0,0,1,2010.35,592.37Z" transform="translate(-1794.527 -528.146)" fill="#511a76" />
    <path id="Path_67" data-name="Path 67" d="M2596.638,706.383a1.194,1.194,0,0,1-.358-.042A1.194,1.194,0,0,1,2596.638,706.383Z" transform="translate(-2317.814 -629.93)" fill="#501e70" />
    <path id="Path_68" data-name="Path 68" d="M2390.361,595.593a2.05,2.05,0,0,1,0,.209,1.594,1.594,0,0,1-.077-.348C2390.311,595.467,2390.333,595.517,2390.361,595.593Z" transform="translate(-2133.838 -530.9)" fill="#541f79" />
    <path id="Path_69" data-name="Path 69" d="M2815.38,729.99a.428.428,0,0,1,.115-.008c.02.018.014.037-.008.081a1.507,1.507,0,0,1-.258.123A.623.623,0,0,1,2815.38,729.99Z" transform="translate(-2513.355 -651.045)" fill="#511a76" />
    <path id="Path_70" data-name="Path 70" d="M2390.53,590.068c.021-.029.048-.031.113-.038a.341.341,0,0,1-.044.255.151.151,0,0,1-.038-.088A.438.438,0,0,1,2390.53,590.068Z" transform="translate(-2134.061 -526.056)" fill="#501778" />
    <path id="Path_71" data-name="Path 71" d="M81.337,1017.667a.3.3,0,0,1,.157-.019A.312.312,0,0,1,81.337,1017.667Z" transform="translate(-71.748 -907.955)" fill="#541f79" />
    <path id="Path_72" data-name="Path 72" d="M2390.5,591.809c.02,0,.025.027.033.092.005.039-.03.042-.047.044A.2.2,0,0,1,2390.5,591.809Z" transform="translate(-2134.012 -527.645)" fill="#541f79" />
    <path id="Path_73" data-name="Path 73" d="M2659.168,705.007c.009.03-.019.041-.068.024C2659.1,705.018,2659.123,705.014,2659.168,705.007Z" transform="translate(-2373.918 -628.74)" fill="#501e70" />
    <path id="Path_74" data-name="Path 74" d="M2820.3,726.933c0-.009.014-.011.02-.01s0,.032-.011.035S2820.3,726.943,2820.3,726.933Z" transform="translate(-2517.882 -648.313)" fill="#541f79" />
    <path id="Path_75" data-name="Path 75" d="M446.932,219.38a.279.279,0,0,1,.06-.075,1.7,1.7,0,0,1,.508.551,34.713,34.713,0,0,1,2.853,10.356,2.259,2.259,0,0,1-1.079,2.567c-.044.024-.072.077-.141.132-.288.241-.542.465-.8.69-.037,0-.067.014-.134.079-.526.482-1.018.916-1.486,1.375a23.581,23.581,0,0,0-4.213,5.31s-.018.006-.04.042a15.909,15.909,0,0,0-2.256,7.39,16.68,16.68,0,0,0,1.506,7.527,5.232,5.232,0,0,1,.184.595s.021.023-.025.014a2.233,2.233,0,0,1-.386-.161c-.972-.715-1.922-1.4-2.873-2.089,0,0,0,.008-.017-.025-.477-.434-.956-.816-1.395-1.24-.58-.559-1.128-1.151-1.69-1.729,0,0,0,.007,0-.03-.145-.239-.285-.444-.43-.644a10.248,10.248,0,0,1-2.1-7.194,16.617,16.617,0,0,1,2.558-6.966,42.5,42.5,0,0,1,4.187-5.625s0-.008.029-.028c.249-.305.466-.59.683-.875,0,0-.008,0,.027-.009a7.745,7.745,0,0,0,.771-.84q2.09-2.855,4.16-5.724a.123.123,0,0,0,.033-.033c.072-.123.12-.217.169-.312,0,0-.027-.04.013-.043C446.078,221.37,446.505,220.375,446.932,219.38Z" transform="translate(-385.753 -194.966)" fill="#fefdfe" />
    <path id="Path_76" data-name="Path 76" d="M566.683,370.515c-3.9,3.319-9.51,4.1-13.166,3.719a12.964,12.964,0,0,1,.851-3.657,17.482,17.482,0,0,1,9.651-10.215,18.24,18.24,0,0,0,8.763-7.6c.246-.424.458-.868.746-1.42a3.051,3.051,0,0,1,.1.519,33.135,33.135,0,0,1-2.093,11.748A17.222,17.222,0,0,1,566.683,370.515Z" transform="translate(-493.446 -312.89)" fill="#fefcfe" />
    <path id="Path_77" data-name="Path 77" d="M521.687,294.932a.534.534,0,0,1,.05-.076c.188-.355.344-.67.5-.986,0,0-.008,0,.023-.019a25.678,25.678,0,0,1,3.719-4.792s-.007,0,.027-.011c.383-.339.731-.67,1.079-1a.1.1,0,0,0,.031-.016.183.183,0,0,0,.077-.081.093.093,0,0,0,.052-.028c.608-.5,1.19-.969,1.76-1.45a22.807,22.807,0,0,0,5.621-7.362.222.222,0,0,0,.053-.054c.2-.358.365-.677.533-1l.161-.017,1.044,2.211a.127.127,0,0,0,0,.064c.108.332.211.616.3.9a20.516,20.516,0,0,1,1.14,7.269,3.856,3.856,0,0,1-2.466,3.678,44.833,44.833,0,0,0-4.2,2.179,17.364,17.364,0,0,0-5.711,5.115.165.165,0,0,0-.037.032,21.734,21.734,0,0,0-3.488,8.243.838.838,0,0,1-.163-.092.508.508,0,0,1-.084-.133,15.78,15.78,0,0,1-1.238-8.377A18.005,18.005,0,0,1,521.687,294.932Z" transform="translate(-463.812 -247.425)" fill="#fefcfe" />
    <path id="Path_78" data-name="Path 78" d="M361.29,316.769c0,.033.007.064.059.142.872,1,1.71,1.947,2.549,2.895a.106.106,0,0,0,.041.054c1.207.877,2.379,1.726,3.551,2.574a.147.147,0,0,1-.036.1.65.65,0,0,1-.3.07,19.893,19.893,0,0,1-9.842-2.586.15.15,0,0,0-.034-.033L355,318.034c0-.036-.015-.066-.079-.132a14.687,14.687,0,0,1-1.007-1.507c-2.005-3.936-1.611-7.8.482-11.554,2.036-3.65,4.267-7.2,5.225-11.452a4.372,4.372,0,0,1,.416.547,28.342,28.342,0,0,1,2.295,5.663,1.823,1.823,0,0,1-.274,1.659,19.733,19.733,0,0,0-.982,1.742c-.154.3-.294.568-.415.844a14.039,14.039,0,0,0-1.068,9.123A10.41,10.41,0,0,0,361.29,316.769Z" transform="translate(-314.014 -261.129)" fill="#fefcfd" />
    <path id="Path_79" data-name="Path 79" d="M486.44,648.789c0-.046,0-.092,0-.2-.027-.154-.051-.242-.07-.38-.031-.313-.067-.577-.095-.861,0-.062-.011-.1-.016-.188-.005-.128-.016-.213-.026-.3a1.582,1.582,0,0,0-.049-.225.956.956,0,0,1-.017-.286.28.28,0,0,0-.016-.147c0-.127-.013-.211-.016-.322.005-.026-.013-.075-.01-.122-.021-.1-.046-.157-.062-.238,0-.1-.012-.173-.015-.29a1.176,1.176,0,0,1,.044-.4c2.859-.006,5.668-.006,8.508-.006-.017.237-.021.413-.044.587q-.3,2.382-.608,4.764-.625,4.922-1.245,9.845c-.2,1.569-.376,3.141-.576,4.75-.054.363-.1.687-.167,1.05-.1.705-.169,1.372-.251,2.038-.2,1.623-.4,3.246-.617,4.866a.937.937,0,0,1-1.029.862,1,1,0,0,1-1.019-.956c-.039-.389-.087-.777-.127-1.2a.718.718,0,0,0-.037-.161s.013-.012.013-.067c-.03-.271-.06-.487-.084-.729.005-.026-.012-.076-.007-.119-.033-.336-.07-.629-.1-.957a.628.628,0,0,0-.048-.158s.01-.01.012-.063c-.023-.271-.049-.489-.07-.735a.21.21,0,0,0-.017-.081c-.008-.087-.016-.175-.036-.314-.012-.052-.033-.1-.024-.11a.228.228,0,0,0-.01-.137c-.03-.287-.065-.537-.092-.805,0-.053-.011-.088-.015-.164,0-.122-.012-.2-.016-.321-.009-.084-.022-.131-.031-.225-.017-.137-.039-.228-.052-.327.009-.009-.014-.047-.009-.09-.03-.289-.065-.536-.092-.8,0-.052-.01-.086-.014-.166-.032-.332-.069-.619-.1-.92a.263.263,0,0,0-.012-.148c-.025-.243-.056-.437-.078-.659-.005-.1-.02-.18-.029-.306-.031-.318-.067-.587-.094-.865.01-.031,0-.047-.01-.1-.1-.921-.212-1.8-.308-2.7,0-.1-.01-.167-.016-.278-.03-.246-.066-.452-.088-.677a1.767,1.767,0,0,0-.012-.188c-.032-.275-.071-.515-.1-.78,0-.1-.01-.17-.017-.283s-.011-.206-.015-.317a.215.215,0,0,0-.018-.081c0-.058-.007-.115-.02-.226a1.309,1.309,0,0,1-.039-.185.3.3,0,0,0-.015-.15c0-.126-.013-.209-.017-.319.005-.026-.013-.076-.009-.122-.019-.134-.043-.223-.059-.333,0-.067-.014-.113-.019-.2-.031-.279-.068-.516-.092-.772,0-.063-.008-.107-.013-.191-.031-.311-.067-.581-.1-.863.011-.033,0-.05-.012-.1,0-.12-.014-.2-.018-.306.006-.026-.013-.076-.008-.119-.06-.531-.126-1.019-.183-1.515.008-.007-.012-.043-.006-.084,0-.123-.014-.2-.019-.327-.025-.2-.056-.354-.081-.547-.032-.315-.07-.594-.1-.89,0-.051-.011-.086-.016-.161,0-.122-.011-.2-.015-.314A.222.222,0,0,0,486.44,648.789Z" transform="translate(-433.189 -574.985)" fill="#fefcfe" />
    <path id="Path_80" data-name="Path 80" d="M457.718,590.346c-.052-.067-.148-.134-.148-.2-.009-1.348-.007-2.7-.007-4.067H472.2c0,1.14.006,2.271,0,3.4a2.253,2.253,0,0,1-.172.835c-4.471.007-8.858.005-13.245.006C458.426,590.321,458.072,590.337,457.718,590.346Z" transform="translate(-407.751 -522.526)" fill="#fdfbfd" />
    <path id="Path_81" data-name="Path 81" d="M1020.07,81.452c.032,4.131.055,8.3.056,12.469q0,36.988,0,73.975c0,4.133-.018,8.267-.032,12.448a2.913,2.913,0,0,1-.083-.577q-.006-48.874,0-97.748A3.5,3.5,0,0,1,1020.07,81.452Z" transform="translate(-910.063 -71.851)" fill="#541f79" />
    <path id="Path_82" data-name="Path 82" d="M159.172,69.844c4,0,7.957,0,11.959,0,4.081.005,8.112.017,12.193.032a2.849,2.849,0,0,1-.576.087q-48.878.006-97.756,0a3.464,3.464,0,0,1-.567-.064c3.992-.032,8.023-.044,12.1-.059,4,0,7.957.006,11.959.005.21,0,.37.009.53.009H158.8C158.908,69.854,159.015,69.85,159.172,69.844Z" transform="translate(-74.506 -61.48)" fill="#541f79" />
    <path id="Path_83" data-name="Path 83" d="M184.266,1017.069c-.822.029-1.683.035-2.594.046-2.935,0-5.819,0-8.752,0-2.347,0-4.644-.008-6.941-.008q-34.383,0-68.767,0c-.089,0-.178,0-.317.01-2.935,0-5.819-.007-8.752-.007-.91,0-1.771-.006-2.682-.018a2.545,2.545,0,0,1,.572-.1q48.834-.006,97.669,0A3.137,3.137,0,0,1,184.266,1017.069Z" transform="translate(-75.43 -907.375)" fill="#541f79" />
    <path id="Path_84" data-name="Path 84" d="M359.724,299.7a17.414,17.414,0,0,1,.958-1.713,1.823,1.823,0,0,0,.274-1.659,28.342,28.342,0,0,0-2.295-5.663,4.375,4.375,0,0,0-.416-.547c-.957,4.249-3.188,7.8-5.225,11.452-2.093,3.751-2.487,7.618-.482,11.554a17.658,17.658,0,0,0,.983,1.5c-.681-.208-.982-.82-1.29-1.4a10.6,10.6,0,0,1-1.08-3.595,12.633,12.633,0,0,1-.052-2.551,12.135,12.135,0,0,1,.414-2.564,17.979,17.979,0,0,1,1.113-2.749c.5-1.026,1.081-2.011,1.642-3.006.2-.352.472-.663.652-1.022.362-.72.678-1.465,1.027-2.192.15-.313.37-.6.5-.915.395-.961.795-1.922,1.126-2.9a15.76,15.76,0,0,0,.354-1.707,1.051,1.051,0,0,1,.174-.29,3.613,3.613,0,0,1,1.391,2c.615,1.37,1.1,2.8,1.621,4.208a2.251,2.251,0,0,1-.468,2.555,12.677,12.677,0,0,0-.814,1.2A.651.651,0,0,1,359.724,299.7Z" transform="translate(-312.635 -257.855)" fill="#5a287b" />
    <path id="Path_85" data-name="Path 85" d="M568.828,318.512a16.828,16.828,0,0,1,5.674-5.121,44.826,44.826,0,0,1,4.2-2.179,3.856,3.856,0,0,0,2.466-3.678,20.518,20.518,0,0,0-1.14-7.269c-.091-.287-.194-.571-.293-.9a1.691,1.691,0,0,1,.682,1.319,16.912,16.912,0,0,0,.455,1.78c.193,1.116.363,2.239.465,3.366a10.159,10.159,0,0,1-.014,2.379,3.044,3.044,0,0,1-.957,2.32c-.609.423-1.3.724-1.952,1.089-.439.246-.855.534-1.3.76-.668.338-1.373.607-2.03.965-.624.34-1.209.751-1.806,1.139a7.334,7.334,0,0,0-.8.564c-.743.638-1.488,1.276-2.2,1.95-.341.323-.6.734-.91,1.088A2.639,2.639,0,0,1,568.828,318.512Z" transform="translate(-507.12 -266.467)" fill="#582679" />
    <path id="Path_86" data-name="Path 86" d="M492.015,662.068c.187-1.571.367-3.142.563-4.711q.616-4.924,1.245-9.845.3-2.382.608-4.764c.022-.174.026-.35.044-.587-2.84,0-5.649,0-8.509-.019a.09.09,0,0,1-.057-.071c.4-.043.789-.117,1.185-.124.747-.013,1.494.016,2.241.019,1.246,0,2.491.008,3.737,0a5.69,5.69,0,0,0,.95-.1c.5-.09.775.113.709.607-.193,1.451-.43,2.9-.611,4.348-.169,1.351-.269,2.711-.436,4.062-.147,1.195-.361,2.382-.517,3.576-.221,1.687-.406,3.379-.627,5.066-.108.825-.26,1.645-.43,2.509-.038.042-.077.053-.081.049Z" transform="translate(-433.066 -572.328)" fill="#5b2a7d" />
    <path id="Path_87" data-name="Path 87" d="M519.762,436.08a19.686,19.686,0,0,0-1.179,4.2,15.78,15.78,0,0,0,1.238,8.377.508.508,0,0,0,.084.133.838.838,0,0,0,.163.092,21.671,21.671,0,0,1,3.489-8.237,1.467,1.467,0,0,1-.112.672,14.135,14.135,0,0,0-2,3.944c-.294,1.09-.658,2.161-1,3.237-.053.165-.128.4-.251.447-.158.061-.5.022-.549-.074a13.1,13.1,0,0,1-.7-1.82,16.49,16.49,0,0,1-.719-5.137,21.446,21.446,0,0,1,.563-3.56,12.479,12.479,0,0,1,.641-1.846A1.46,1.46,0,0,1,519.762,436.08Z" transform="translate(-461.924 -388.565)" fill="#582679" />
    <path id="Path_88" data-name="Path 88" d="M438.351,321.414a47.066,47.066,0,0,0-4.146,5.636,16.617,16.617,0,0,0-2.558,6.966,10.248,10.248,0,0,0,2.1,7.194c.145.2.285.4.434.643a5.029,5.029,0,0,1-.781-.716,9.276,9.276,0,0,1-1.943-5.334,13.414,13.414,0,0,1,.329-3.514,22.5,22.5,0,0,1,1.118-3.361,12.091,12.091,0,0,1,.839-1.465c.187-.335.324-.7.53-1.022.626-.978,1.261-1.951,1.924-2.906a11.449,11.449,0,0,1,.823-.9c.265-.306.493-.646.771-.938A1.569,1.569,0,0,1,438.351,321.414Z" transform="translate(-384.421 -286.158)" fill="#59277a" />
    <path id="Path_89" data-name="Path 89" d="M502.584,432.283c-.093-.194-.134-.4-.217-.59a16.68,16.68,0,0,1-1.506-7.527,15.832,15.832,0,0,1,2.257-7.381c-.2.6-.413,1.232-.651,1.853-.066.172-.257.3-.3.475-.309,1.188-.547,2.4-.9,3.568a5.417,5.417,0,0,0-.095,2.2c.081.8.032,1.623.132,2.424a11.631,11.631,0,0,0,.465,1.956c.264.858.589,1.7.869,2.551A.912.912,0,0,1,502.584,432.283Z" transform="translate(-446.406 -371.333)" fill="#582679" />
    <path id="Path_90" data-name="Path 90" d="M566.617,229.712c.036-.039.064-.092.108-.116a2.259,2.259,0,0,0,1.079-2.567,34.714,34.714,0,0,0-2.853-10.356,2.06,2.06,0,0,0-.508-.575,1.618,1.618,0,0,1,.169-.357c.918.878,1.077,2.056,1.47,3.11a29.257,29.257,0,0,1,1.168,3.7c.316,1.388.465,2.816.671,4.228.061.419.079.846.106,1.27.031.467.045.913-.485,1.174-.21.1-.352.342-.587.542A1.235,1.235,0,0,1,566.617,229.712Z" transform="translate(-503.204 -191.783)" fill="#59277a" />
    <path id="Path_91" data-name="Path 91" d="M416.589,383.052a.133.133,0,0,1,.1-.029c-.186.56-.4,1.121-.61,1.68-.063.166-.156.322-.2.492q-.283,1.033-.545,2.073a9.807,9.807,0,0,0-.02,5.453c.413,1.294,1,2.532,1.505,3.8a.578.578,0,0,1,0,.277,9.822,9.822,0,0,1-1.715-3.776,14.039,14.039,0,0,1,1.068-9.123C416.295,383.62,416.434,383.352,416.589,383.052Z" transform="translate(-369.523 -341.18)" fill="#582679" />
    <path id="Path_92" data-name="Path 92" d="M592.341,288.115a22.29,22.29,0,0,1-5.586,7.352c-.57.481-1.152.949-1.758,1.44a2.34,2.34,0,0,1,.458-.682,24.914,24.914,0,0,0,3.372-3.292,27.512,27.512,0,0,0,3.147-4.476A1.46,1.46,0,0,1,592.341,288.115Z" transform="translate(-521.562 -256.419)" fill="#582679" />
    <path id="Path_93" data-name="Path 93" d="M511.941,845.746c.044.389.093.777.132,1.166a1,1,0,0,0,1.019.956.937.937,0,0,0,1.029-.862c.219-1.62.417-3.244.617-4.866.082-.665.148-1.332.268-2.05a.964.964,0,0,1,.157-.12c-.036.607-.055,1.215-.114,1.819-.031.314-.16.618-.2.932-.135,1.068-.253,2.137-.369,3.207-.036.334-.042.672-.069,1.007a1.43,1.43,0,0,1-1.085,1.211,1.26,1.26,0,0,1-1.436-.912,7.072,7.072,0,0,1-.04-1.456A.167.167,0,0,1,511.941,845.746Z" transform="translate(-456.218 -749.273)" fill="#5a287b" />
    <path id="Path_94" data-name="Path 94" d="M459.165,625.826a7.62,7.62,0,0,1,1.046-.064c4.387,0,8.774,0,13.209.014a3.344,3.344,0,0,1-.927.215q-6.385.021-12.77,0A1.514,1.514,0,0,1,459.165,625.826Z" transform="translate(-409.182 -557.968)" fill="#501778" />
    <path id="Path_95" data-name="Path 95" d="M396.593,542.8a20.262,20.262,0,0,0,9.841,2.548,1.1,1.1,0,0,0,.308-.046c-.062.062-.175.231-.275.224-1.464-.109-2.941-.152-4.384-.394a17.591,17.591,0,0,1-3.505-1.006A9.807,9.807,0,0,1,396.593,542.8Z" transform="translate(-353.299 -483.877)" fill="#5a287b" />
    <path id="Path_96" data-name="Path 96" d="M522.829,360.666A22.19,22.19,0,0,1,527,355.346c.468-.459.96-.894,1.476-1.352.2.305-.039.422-.241.575-.472.358-1.038.64-1.111,1.339-.008.073-.146.135-.227.2a13.31,13.31,0,0,0-3.6,4.257C523.216,360.5,523.014,360.573,522.829,360.666Z" transform="translate(-466.039 -315.255)" fill="#582679" />
    <path id="Path_97" data-name="Path 97" d="M508.286,251.445c-1.351,1.924-2.733,3.836-4.126,5.739a8.247,8.247,0,0,1-.77.844,1.645,1.645,0,0,1,.237-.54c.817-1.025,1.691-2.008,2.463-3.066.677-.926,1.241-1.934,1.868-2.9C508,251.458,508.152,251.46,508.286,251.445Z" transform="translate(-448.679 -223.669)" fill="#59277a" />
    <path id="Path_98" data-name="Path 98" d="M498.04,765.258a1.177,1.177,0,0,1,.041.321.1.1,0,0,1-.061.058c-.1-.462-.233-.92-.283-1.387-.235-2.184-.447-4.37-.666-6.556-.054-.542-.1-1.084-.108-1.66a.167.167,0,0,1,.095-.033c.008.082.017.165.021.332,0,.145,0,.2,0,.263.039.24.077.48.111.8,0,.107,0,.136,0,.164.036.206.071.411.1.7,0,.143,0,.2,0,.26.108.875.217,1.751.321,2.683a.609.609,0,0,0,0,.1c.036.268.072.536.1.883a2.954,2.954,0,0,0,.02.3c.031.194.061.388.088.659a1.054,1.054,0,0,0,0,.133c.038.287.076.574.109.941a1.13,1.13,0,0,0,0,.148c.035.246.07.493.1.792A.527.527,0,0,0,498.04,765.258Z" transform="translate(-442.938 -674.283)" fill="#5a287b" />
    <path id="Path_99" data-name="Path 99" d="M542.044,381.072a27.1,27.1,0,0,0-3.677,4.8,8.1,8.1,0,0,1,.674-1.517,20.287,20.287,0,0,1,1.659-2.114A10.716,10.716,0,0,1,542.044,381.072Z" transform="translate(-479.917 -339.438)" fill="#582679" />
    <path id="Path_100" data-name="Path 100" d="M462.3,543.543c-1.2-.823-2.368-1.672-3.562-2.546a9.627,9.627,0,0,1,1.175.632c.587.406,1.134.867,1.709,1.29.138.1.343.115.475.221A.825.825,0,0,1,462.3,543.543Z" transform="translate(-408.8 -482.265)" fill="#59277a" />
    <path id="Path_101" data-name="Path 101" d="M457.116,513.23c.557.539,1.105,1.131,1.685,1.69.439.424.918.806,1.4,1.238a.505.505,0,0,1-.344-.013A7.885,7.885,0,0,1,457.116,513.23Z" transform="translate(-407.352 -457.467)" fill="#59277a" />
    <path id="Path_102" data-name="Path 102" d="M491.426,704.48c.037.237.074.474.1.776a1.3,1.3,0,0,0,.012.2,1.564,1.564,0,0,1,.058.323c-.021.089-.013.114.012.135.009.084.018.167.024.324a.972.972,0,0,0,0,.134.517.517,0,0,1,.03.147,8.025,8.025,0,0,1-.438-1.569c-.126-1.28-.168-2.568-.244-3.9,0-.05,0-.051.023-.051h.065c.01.082.02.164.024.295a.516.516,0,0,0,0,.083c.066.488.131.976.183,1.519-.023.085-.015.111.011.133.01.08.019.16.025.292a.475.475,0,0,0,0,.1c.036.27.073.54.105.894C491.424,704.423,491.424,704.452,491.426,704.48Z" transform="translate(-437.604 -625.159)" fill="#5a287b" />
    <path id="Path_103" data-name="Path 103" d="M486.119,541.219c.946.65,1.9,1.337,2.851,2.077a.283.283,0,0,1-.08.141c-.383-.245-.78-.472-1.146-.74-.475-.348-.932-.722-1.385-1.1A1.254,1.254,0,0,1,486.119,541.219Z" transform="translate(-433.254 -482.463)" fill="#59277a" />
    <path id="Path_104" data-name="Path 104" d="M437.115,516.377c-.85-.911-1.689-1.859-2.542-2.843.153.013.384.008.478.119.624.734,1.223,1.491,1.822,2.247A1.807,1.807,0,0,1,437.115,516.377Z" transform="translate(-387.219 -457.738)" fill="#59277a" />
    <path id="Path_105" data-name="Path 105" d="M656.209,278.627c-.355-.7-.7-1.432-1.051-2.169l-.161.017c-.168.319-.336.638-.536.982-.026-.7.193-1.212.56-1.188.613.041.657.616.812,1.052C655.981,277.735,656.09,278.163,656.209,278.627Z" transform="translate(-583.597 -245.839)" fill="#582679" />
    <path id="Path_106" data-name="Path 106" d="M552.729,220.116c-.392.983-.819,1.978-1.274,3a1.018,1.018,0,0,1,.017-.493c.344-.788.711-1.566,1.075-2.346C552.574,220.215,552.644,220.176,552.729,220.116Z" transform="translate(-491.585 -195.69)" fill="#59277a" />
    <path id="Path_107" data-name="Path 107" d="M374.92,524.205c.76.61,1.506,1.252,2.278,1.917a2.2,2.2,0,0,1-.7-.266c-.524-.4-1.016-.851-1.507-1.3C374.921,524.5,374.933,524.347,374.92,524.205Z" transform="translate(-333.944 -467.268)" fill="#5a287b" />
    <path id="Path_108" data-name="Path 108" d="M483.212,644c.035,0,.04.048.042.074.006.144.01.262.007.451,0,.144,0,.217.007.289a.664.664,0,0,1,.062.224c-.02.089-.012.114.013.135.009.084.018.169.024.326a.9.9,0,0,0,.005.132c0,.073,0,.145,0,.255-.154-.536-.312-1.107-.444-1.684C482.919,644.157,483.09,644.071,483.212,644Z" transform="translate(-430.405 -574.255)" fill="#5a287b" />
    <path id="Path_109" data-name="Path 109" d="M574.253,371.532a14.43,14.43,0,0,1-1.04,1.014C573.065,371.753,573.713,371.711,574.253,371.532Z" transform="translate(-511.018 -330.918)" fill="#582679" />
    <path id="Path_110" data-name="Path 110" d="M486.655,664.084a.569.569,0,0,1,.06.3,1.457,1.457,0,0,0,.008.187c.036.264.072.528.1.881-.006.169-.007.249-.008.329A2.171,2.171,0,0,1,486.655,664.084Z" transform="translate(-433.646 -592.192)" fill="#5a287b" />
    <path id="Path_111" data-name="Path 111" d="M578.157,346.578a2.9,2.9,0,0,1,.34.051c-.331.21-.692.424-1.1.638A9.114,9.114,0,0,1,578.157,346.578Z" transform="translate(-514.778 -308.632)" fill="#582679" />
    <path id="Path_112" data-name="Path 112" d="M489.3,683.466c.038.279.076.558.106.919-.008.235-.009.388-.009.541h0c-.072-.608-.143-1.217-.191-1.875a.081.081,0,0,1,.069-.049c.008.082.016.163.022.32A1.21,1.21,0,0,0,489.3,683.466Z" transform="translate(-436.012 -609.088)" fill="#5a287b" />
    <path id="Path_113" data-name="Path 113" d="M506.749,848c.009.081.018.162.023.32a1.2,1.2,0,0,0,0,.146c.036.251.071.5.1.817a.867.867,0,0,0,0,.121.143.143,0,0,1,.015.069c-.393-.4-.255-.919-.238-1.442A.167.167,0,0,1,506.749,848Z" transform="translate(-451.561 -756.447)" fill="#5a287b" />
    <path id="Path_114" data-name="Path 114" d="M510.152,876.07c.03.216.06.432.086.695-.1-.1-.252-.239-.266-.391a10.037,10.037,0,0,1,0-1.321.078.078,0,0,1,.067-.05c.038.293.075.586.1.934C510.119,876.023,510.127,876.049,510.152,876.07Z" transform="translate(-454.538 -780.562)" fill="#5a287b" />
    <path id="Path_115" data-name="Path 115" d="M497.246,313.113a10.492,10.492,0,0,1-.641.871C496.489,313.5,496.879,313.329,497.246,313.113Z" transform="translate(-442.6 -278.744)" fill="#59277a" />
    <path id="Path_116" data-name="Path 116" d="M533.893,426.127a7.12,7.12,0,0,1-.464.959C533.465,426.742,533.391,426.311,533.893,426.127Z" transform="translate(-475.506 -379.676)" fill="#582679" />
    <path id="Path_117" data-name="Path 117" d="M508.219,866c.026.218.052.436.072.7-.388-.087-.257-.373-.163-.669A.163.163,0,0,1,508.219,866Z" transform="translate(-452.821 -772.523)" fill="#5a287b" />
    <path id="Path_118" data-name="Path 118" d="M512.165,561.05a.346.346,0,0,1,.088-.143,2.666,2.666,0,0,1,.371.1C512.544,561.305,512.394,561.394,512.165,561.05Z" transform="translate(-456.515 -500.046)" fill="#582679" />
    <path id="Path_119" data-name="Path 119" d="M541.917,832.051a.322.322,0,0,1-.128.125c.024-.311.066-.635.12-1,.013-.039.021-.031.021.014,0,.154,0,.264,0,.374C541.925,831.713,541.922,831.86,541.917,832.051Z" transform="translate(-482.972 -741.4)" fill="#5b2a7d" />
    <path id="Path_120" data-name="Path 120" d="M549.944,248.3a.827.827,0,0,1-.135.312A.827.827,0,0,1,549.944,248.3Z" transform="translate(-490.135 -220.859)" fill="#59277a" />
    <path id="Path_121" data-name="Path 121" d="M543.139,831.425a1.337,1.337,0,0,1-.015-.339c0-.041.044-.052.064-.056A1.475,1.475,0,0,1,543.139,831.425Z" transform="translate(-484.162 -741.291)" fill="#5a287b" />
    <path id="Path_122" data-name="Path 122" d="M489.008,677.63a1.612,1.612,0,0,1-.011-.284.828.828,0,0,1,.064.257A.039.039,0,0,1,489.008,677.63Z" transform="translate(-435.823 -604.037)" fill="#5b2a7d" />
    <path id="Path_123" data-name="Path 123" d="M506.989,846.2c0,.037-.053.035-.077.033a.344.344,0,0,1-.031-.164c0-.032.035-.041.054-.044A.329.329,0,0,1,506.989,846.2Z" transform="translate(-451.796 -754.678)" fill="#5b2a7d" />
    <path id="Path_124" data-name="Path 124" d="M509.2,865.184c0,.028-.051.027-.074.026-.013-.029,0-.055.04-.092C509.193,865.121,509.2,865.138,509.2,865.184Z" transform="translate(-453.801 -771.734)" fill="#5b2a7d" />
    <path id="Path_125" data-name="Path 125" d="M510.171,873.753c0,.034-.049.034-.072.034-.016-.032-.01-.065.01-.145C510.14,873.636,510.158,873.678,510.171,873.753Z" transform="translate(-454.662 -779.346)" fill="#5b2a7d" />
    <path id="Path_126" data-name="Path 126" d="M512.207,892.736c0,.034-.052.033-.075.032-.015-.033-.007-.066.02-.145C512.184,892.618,512.2,892.66,512.207,892.736Z" transform="translate(-456.479 -796.297)" fill="#5b2a7d" />
    <path id="Path_127" data-name="Path 127" d="M489.245,682.18c0,.029-.05.028-.073.028-.013-.029,0-.056.039-.095C489.235,682.116,489.242,682.134,489.245,682.18Z" transform="translate(-435.977 -608.295)" fill="#5b2a7d" />
    <path id="Path_128" data-name="Path 128" d="M583.758,370.742c.012.024-.007.047-.052.073C583.686,370.789,583.7,370.762,583.758,370.742Z" transform="translate(-520.401 -330.212)" fill="#582679" />
    <path id="Path_129" data-name="Path 129" d="M497.215,755.181c0,.028-.052.027-.076.026-.013-.029,0-.055.04-.092C497.2,755.117,497.212,755.135,497.215,755.181Z" transform="translate(-443.092 -673.49)" fill="#5b2a7d" />
    <path id="Path_130" data-name="Path 130" d="M1628.14,600.952c.034-.012.062.007.094.058C1628.211,601.014,1628.175,600.994,1628.14,600.952Z" transform="translate(-1453.18 -535.807)" fill="#501e70" />
    <path id="Path_131" data-name="Path 131" d="M1559,690.791a.263.263,0,0,0,.016-.026s0,.018-.01.021S1559,690.79,1559,690.791Z" transform="translate(-1391.431 -616.021)" fill="#501e70" />
    <path id="Path_132" data-name="Path 132" d="M2397.008,271.164c3.78-.024,7.56-.024,11.388-.018.05.007.049.049.048.071-3.779.021-7.559.02-11.388.019C2397.005,271.235,2397.006,271.187,2397.008,271.164Z" transform="translate(-2139.846 -241.261)" fill="#501778" />
    <path id="Path_133" data-name="Path 133" d="M491.044,696.784a3.359,3.359,0,0,1-.019-.5,3.144,3.144,0,0,1,.089.465C491.109,696.785,491.066,696.785,491.044,696.784Z" transform="translate(-437.635 -620.946)" fill="#5b2a7d" />
    <path id="Path_134" data-name="Path 134" d="M504.007,814.583a1.008,1.008,0,0,1-.034-.227A1.008,1.008,0,0,1,504.007,814.583Z" transform="translate(-449.199 -726.399)" fill="#5b2a7d" />
    <path id="Path_135" data-name="Path 135" d="M486,649.545a1.09,1.09,0,0,1-.022-.219A1.071,1.071,0,0,1,486,649.545Z" transform="translate(-433.132 -579.012)" fill="#5b2a7d" />
    <path id="Path_136" data-name="Path 136" d="M500,777.713a.665.665,0,0,1-.02-.194A.665.665,0,0,1,500,777.713Z" transform="translate(-445.634 -693.5)" fill="#5b2a7d" />
    <path id="Path_137" data-name="Path 137" d="M498.008,759.7a.624.624,0,0,1-.021-.2A.624.624,0,0,1,498.008,759.7Z" transform="translate(-443.853 -677.406)" fill="#5b2a7d" />
    <path id="Path_138" data-name="Path 138" d="M487.994,667.414a.338.338,0,0,1-.021-.124A.342.342,0,0,1,487.994,667.414Z" transform="translate(-434.91 -595.056)" fill="#5b2a7d" />
    <path id="Path_139" data-name="Path 139" d="M496.018,741.362a.385.385,0,0,1-.025-.135A.378.378,0,0,1,496.018,741.362Z" transform="translate(-442.072 -661.088)" fill="#5b2a7d" />
    <path id="Path_140" data-name="Path 140" d="M509.011,860.4c-.01-.006-.012-.025-.015-.072C509.016,860.323,509.024,860.352,509.011,860.4Z" transform="translate(-453.685 -767.454)" fill="#5b2a7d" />
    <path id="Path_141" data-name="Path 141" d="M511.633,884.193c-.031,0-.038-.021-.021-.064C511.62,884.116,511.638,884.167,511.633,884.193Z" transform="translate(-456.013 -788.71)" fill="#5b2a7d" />
    <path id="Path_142" data-name="Path 142" d="M508.033,851.46c-.011-.006-.014-.03-.018-.088C508.022,851.372,508.032,851.408,508.033,851.46Z" transform="translate(-452.809 -759.457)" fill="#5b2a7d" />
    <path id="Path_143" data-name="Path 143" d="M486.611,654.2c-.03,0-.038-.021-.021-.063C486.6,654.121,486.617,654.171,486.611,654.2Z" transform="translate(-433.667 -583.304)" fill="#5b2a7d" />
    <path id="Path_144" data-name="Path 144" d="M496.612,746.2c-.03,0-.038-.021-.021-.063C496.6,746.122,496.618,746.172,496.612,746.2Z" transform="translate(-442.599 -665.469)" fill="#5b2a7d" />
    <path id="Path_145" data-name="Path 145" d="M490.031,686.463c-.011-.006-.014-.029-.018-.086C490.02,686.377,490.03,686.412,490.031,686.463Z" transform="translate(-436.732 -612.102)" fill="#5b2a7d" />
    <path id="Path_146" data-name="Path 146" d="M492,704.167c-.008.008-.011-.026-.011-.034S492.012,704.159,492,704.167Z" transform="translate(-438.5 -627.958)" fill="#5b2a7d" />
    <path id="Path_147" data-name="Path 147" d="M493.635,719.193c-.031,0-.039-.021-.021-.064C493.622,719.117,493.64,719.167,493.635,719.193Z" transform="translate(-439.939 -641.351)" fill="#5b2a7d" />
    <path id="Path_148" data-name="Path 148" d="M494.033,723.14c-.009.011-.016-.036-.016-.048C494.036,723.091,494.044,723.107,494.033,723.14Z" transform="translate(-440.308 -644.892)" fill="#5b2a7d" />
    <path id="Path_149" data-name="Path 149" d="M495.038,732.5c-.014-.009-.015-.037-.017-.108C495.03,732.39,495.041,732.434,495.038,732.5Z" transform="translate(-441.204 -653.195)" fill="#5b2a7d" />
    <path id="Path_150" data-name="Path 150" d="M507.012,842.17c-.008.008-.012-.029-.013-.038S507.02,842.162,507.012,842.17Z" transform="translate(-451.902 -751.204)" fill="#5b2a7d" />
    <path id="Path_151" data-name="Path 151" d="M497.011,750.481c-.01-.006-.013-.026-.018-.078C497.012,750.4,497.022,750.43,497.011,750.481Z" transform="translate(-442.965 -669.283)" fill="#5b2a7d" />
    <path id="Path_152" data-name="Path 152" d="M499.05,769.476c-.015-.01-.016-.038-.017-.11C499.043,769.368,499.054,769.412,499.05,769.476Z" transform="translate(-444.787 -686.219)" fill="#5b2a7d" />
    <path id="Path_153" data-name="Path 153" d="M487.008,658.5c-.011-.005-.013-.025-.018-.075C487.01,658.416,487.02,658.446,487.008,658.5Z" transform="translate(-434.032 -587.134)" fill="#5b2a7d" />
    <path id="Path_154" data-name="Path 154" d="M503.023,805.142c-.008.011-.013-.034-.014-.046C503.026,805.1,503.033,805.111,503.023,805.142Z" transform="translate(-448.338 -718.128)" fill="#5b2a7d" />
    <path id="Path_155" data-name="Path 155" d="M505,823.432c-.01-.005-.012-.024-.016-.071C505.005,823.357,505.014,823.385,505,823.432Z" transform="translate(-450.103 -734.441)" fill="#5b2a7d" />
    <path id="Path_156" data-name="Path 156" d="M506.035,833.455c-.011-.006-.013-.029-.018-.087C506.024,833.368,506.034,833.4,506.035,833.455Z" transform="translate(-451.025 -743.378)" fill="#5b2a7d" />
  </g>
</svg>