<svg xmlns="http://www.w3.org/2000/svg" viewBox="0 0 389.137 73.347">
  <g id="Group_7" data-name="Group 7" transform="translate(-46.084 -344.083)">
    <g id="logo_UCSD_adobe_express" transform="translate(46.084 344.083)">
      <path id="Path_162" data-name="Path 162" d="M7.088,6.241c7.531-.255,15-.214,22.863-.171-.514,1.317-.555,1.712-.7,1.756-6.6,1.972-6.6,1.969-6.6,9.16,0,9.632-.059,19.265.019,28.9.062,7.685,3.535,12.735,10.534,13.643,8.2,1.064,14.85-2.236,15.153-11.691.368-11.443.076-22.906.1-34.361.006-3.325-1.55-5.054-4.911-5.193a9.64,9.64,0,0,1-2.156-.634c2.089-2.132,17.137-2.394,20.2-.587-.07.242-.088.655-.224.7-6.911,2.217-7.422,2.92-7.436,10.71-.018,9.632-.153,19.267.033,28.9.232,11.98-6.317,15.6-15.876,16.347a51.563,51.563,0,0,1-11.97-.806,13.281,13.281,0,0,1-11.2-12.259c-.508-12.057-.616-24.132-.844-36.2-.093-4.907-1.21-6.052-6.6-6.117A3.613,3.613,0,0,1,7.088,6.241Z" transform="translate(-7.084 -5.253)" fill="#18264d"/>
      <path id="Path_163" data-name="Path 163" d="M430.751,82.534c-3.953-1.051-7.369-2.7-8.725-6.246-1.535-4.011-1.36-7.306,4.112-11.4-3.568-4.08-1.843-8.137.357-11.968-3.4-4.154-4.563-8.5-3.206-13.539,1.565-5.812,4.957-8.894,10.941-9.093,2.816-.094,5.669.631,8.469.445,1.323-.088,2.616-1.371,3.829-2.242,2.01-1.444,3.743-3.585,5.963-4.341,2.542-.865,4.5.587,4.512,3.705.013,3.087-1.686,4.064-4.5,3.954-1.384-.054-2.776.139-4.165.22a40.344,40.344,0,0,0,1.166,4.468c3.712,9.693-.739,19.209-11.486,18.76-1.817-.076-3.645.046-5.459-.067-1.412-.088-3.3-1.425-3.589,1.2-.265,2.436,1.279,3.521,3.59,3.54,3.641.03,7.284-.052,10.924.039a20.977,20.977,0,0,1,5.344.618,9.617,9.617,0,0,1,4.042,16.188c-2.414,2.3-5.813,3.565-8.944,5.5-4.391.243-8.6.28-13.18.261m18.384-8.425c1.745-4.9.158-7.563-4.959-7.872-3.493-.211-7.009,0-10.513-.064-2.644-.047-5.466.387-5.83,3.255a10.15,10.15,0,0,0,1.711,6.983c4.137,5.135,13.63,4.054,19.592-2.3m-14.366-22.6c3.422,1.626,5.867-.081,7.69-2.647,2.253-3.171,1.449-10.341-1.164-13.206A6.194,6.194,0,0,0,431.126,36.7C428.539,41.677,429.787,47.576,434.769,51.511Z" transform="translate(-97.5 -9.191)" fill="#18264d"/>
      <path id="Path_164" data-name="Path 164" d="M173.275,5.087c1.548.441,2.732.826,4.233,1.313,0,3.172.069,6.408-.052,9.636-.027.734-.713,1.443-1.1,2.164-.662-.568-1.625-1-1.94-1.725a12.468,12.468,0,0,0-17.441-6.247c-6,3.236-6.586,10.415-.882,14.09,4.668,3.008,9.671,5.509,14.59,8.114,6.575,3.482,11.8,9.657,8.995,19.109a16.42,16.42,0,0,1-6.11,8.369c-6.288,4.195-13.564,4.676-20.936,3.093-.127-.027-.256-.04-.385-.062-8.912-1.464-9.336-2-8.3-11.111a7,7,0,0,1,1.117-2.154c.7.554,1.678.962,2.065,1.685,4.079,7.629,13.137,10.046,20.125,5.292,5.033-3.423,5.9-9.931,1.283-13.913-3.377-2.909-7.592-4.833-11.387-7.269-2.817-1.808-5.669-3.592-8.311-5.638-5.1-3.947-5.046-9.7-3.752-14.972,1.275-5.2,5.407-8.383,11.095-9.513C161.882,5.105,167.4,5.068,173.275,5.087Z" transform="translate(-36.88 -5.083)" fill="#18264d"/>
      <path id="Path_165" data-name="Path 165" d="M107.427,5.087c2.562.663,4.759,1.27,7.063,1.906.363,3.74.837,7.444,1.009,11.161.048,1.042-.793,2.125-1.226,3.19-.782-.839-1.9-1.545-2.293-2.538-3.363-8.415-10.978-12.1-19.095-9-6.147,2.352-7.87,8.055-8.311,13.5-.6,7.417-.982,14.951,1.3,22.384,3.41,11.107,13.789,14.682,23.385,12.87,2-.378,3.959-.994,6.031-1.524.655,2.948.363,4.622-3.143,5.338-6.693,1.366-13.4,2.134-19.954.285A21.074,21.074,0,0,1,78.01,49.821c-3.935-9.582-4.13-19.532-1.98-29.374,1.625-7.436,6.075-13.106,14.309-15.1C96.033,5.105,101.548,5.068,107.427,5.087Z" transform="translate(-21.84 -5.083)" fill="#18264d"/>
      <path id="Path_166" data-name="Path 166" d="M7.093,95.317q162.023-.344,323.942-.052c.624,0,1.248.724,1.778,2.118q-162.476,0-325.31,0A3.3,3.3,0,0,1,7.093,95.317Z" transform="translate(-7.085 -24.75)" fill="#ca9428"/>
      <path id="Path_167" data-name="Path 167" d="M496.008,58.981c-.507.812-1.137,1.178-1.382,1.719-3.617,8.018-12.224,9.754-17.466,8.524-8.723-2.048-11.834-5.73-12.915-15.991a28.662,28.662,0,0,1,2.337-13.514c4.387-10.408,21.185-10.424,27.083-.9a13.1,13.1,0,0,0,2.023,2.459c.3,5.8.338,11.569.32,17.7m-11.283,5.037C490,59.183,490.466,45.142,486.1,38.9c-3.841-5.49-9.742-5-12.387,1.2a26.508,26.508,0,0,0,.1,21.454C475.765,66.079,479.894,67.013,484.726,64.018Z" transform="translate(-106.876 -10.914)" fill="#18264d"/>
      <path id="Path_168" data-name="Path 168" d="M327.019,61.309c-9.576.675-18.858,1.265-28.147,1.754a49.547,49.547,0,0,1-5.8-.434c1.026-1.093,1.3-1.669,1.67-1.736,5.471-1,6.262-4.706,6.161-9.527-.23-11.055-.073-22.119-.073-33.179,0-7.922,0-7.922-7.11-10.73.438-.5.811-1.283,1.172-1.277,9.979.153,20.08-.506,29.9.845,10.827,1.49,17.1,9.746,17.391,20.719a100.8,100.8,0,0,1-.821,17.984c-1.232,7.963-6.391,13.014-14.351,15.579M309.431,25.966q0,14.038,0,28.075c.006,3.8,1.321,5.111,5.051,5.13a17.841,17.841,0,0,0,17.555-12.7c2.084-6.668,1.947-13.417.926-20.311C331.361,15.3,324.549,9.451,313.544,9.908c-2.991.124-4.188,1.472-4.13,4.36C309.488,17.905,309.431,21.546,309.431,25.966Z" transform="translate(-69.527 -5.316)" fill="#18264d"/>
      <path id="Path_169" data-name="Path 169" d="M239.118,64.743l5.641,3.032a25.954,25.954,0,0,1-3.8.9c-6.725.309-13.459.836-20.176.672-2.9-.071-5.764-1.619-9.1-2.635-1.949.7-4.727,2.1-7.664,2.662a9.47,9.47,0,0,1-10.869-6.694c-1.254-4.49,1.615-10.319,6.386-11.85,4.259-1.367,8.745-2.026,13.914-3.171-.374-2.831-.206-6.2-1.416-8.967-.729-1.664-3.523-3.112-5.538-3.341-2.207-.25-4.235.971-4.407,4.189-.076,1.432-2.015,3.191-3.534,3.941-.774.382-3.433-.977-3.582-1.835-.317-1.834-.192-4.365.881-5.709,3.893-4.875,16.874-5.631,21.089-1.123,1.579,1.69,2.342,4.639,2.488,7.074.349,5.832.192,11.7.094,17.552-.131,7.784.436,7.068,8.354,6.812.954-.031,1.882-.8,3.309-1.135,2.967-.057,5.448-.214,7.93-.371m-34.428.415c6.35-.656,9.659-6.1,7.972-13.8-2.314.58-4.918.691-6.877,1.873a11.569,11.569,0,0,0-4.8,5.32C200.052,61.1,201.492,63.575,204.69,65.158Z" transform="translate(-47.645 -10.92)" fill="#18264d"/>
      <path id="Path_170" data-name="Path 170" d="M248.057,64.419a33.951,33.951,0,0,1-7.614.556c-.207-7.139-.238-14.044-.17-20.947.041-4.116.667-8.481-6.253-8.482q.37-.782.74-1.564l12.22-2.18.6,6.664a23.824,23.824,0,0,0,2.128-2.012c3.331-4.2,10.069-5.95,14.773-3.6,3.607,1.8,3.667,5.528,3.836,8.788.3,5.716.084,11.459.084,17.191,0,6.077,0,6.077,5.262,8.269-1.485,1.947-13.864,2.409-17.589.655.025-.252.012-.709.087-.725,4.681-.939,5.541-4.033,5.284-8.32-.327-5.452.136-10.951-.2-16.4-.116-1.9-1.681-5.322-2.415-5.277-2.3.141-5.264.989-6.633,2.66C246.287,46.909,246.5,55.452,248.057,64.419Z" transform="translate(-56.633 -10.916)" fill="#18264d"/>
      <path id="Path_171" data-name="Path 171" d="M404.841,33.715c4.537,3.229,6.041,7.48,5.626,13.013H389.586c-3.044,11.35,6.693,20.517,20.126,18.239-.936,1.61-1.342,3.3-2.133,3.509-6.446,1.668-12.9,1.63-18.738-1.947a14.732,14.732,0,0,1-4.8-5.338c-3.879-6.993-3.5-14.58-1.055-21.716,2.545-7.44,13.519-9.648,21.855-5.761m-4.284,3.341c-5.714-3.486-10.618-.867-11.4,6.252h14.07C402.336,41.035,401.644,39.274,400.557,37.056Z" transform="translate(-88.754 -10.922)" fill="#18264d"/>
      <path id="Path_172" data-name="Path 172" d="M368.643,32.312c3.088-.694,2.844,1.218,2.844,2.946q-.006,10.153,0,20.306c0,.781-.013,1.562,0,2.343.115,5.579.693,6.483,6.067,9.518-2.083,1.854-14.913,1.993-18.312-.262,7.126-1.088,5.959-6.227,5.985-10.789.02-3.514,0-7.029,0-10.543.008-4.514,1.072-9.539-6.331-10.452l.827-1.275C362.6,33.549,365.463,32.995,368.643,32.312Z" transform="translate(-83.899 -10.996)" fill="#18264d"/>
      <path id="Path_173" data-name="Path 173" d="M465.572,97.2h-5.635c2.056-2.437,20.67-3.653,31.09-2.3.7.091,1.331.758,1.994,1.157q-.166.571-.331,1.142Z" transform="translate(-105.959 -24.571)" fill="#ca9428"/>
      <path id="Path_174" data-name="Path 174" d="M365.018,16c.655-3.92,3.424-4.79,6.091-3.733,1.509.6,2.946,3.2,3.084,5,.2,2.572-1.8,4.18-4.581,4.055C366.493,21.182,364.938,19.458,365.018,16Z" transform="translate(-85.234 -6.56)" fill="#18264d"/>
    </g>
  </g>
</svg>
